<?xml version="1.0" encoding="UTF-8"?>
<!DOCTYPE svg PUBLIC "-//W3C//DTD SVG 1.1//EN" "http://www.w3.org/Graphics/SVG/1.1/DTD/svg11.dtd">
<!-- Creator: CorelDRAW -->
<svg xmlns="http://www.w3.org/2000/svg" xml:space="preserve" width="77.649mm" height="26.0651mm" version="1.1" style="shape-rendering:geometricPrecision; text-rendering:geometricPrecision; image-rendering:optimizeQuality; fill-rule:evenodd; clip-rule:evenodd"
viewBox="0 0 7757.05 2603.87"
 xmlns:xlink="http://www.w3.org/1999/xlink"
 xmlns:xodm="http://www.corel.com/coreldraw/odm/2003">
 <defs>
  <style type="text/css">
   <![CDATA[
    .fil7 {fill:#057ABB}
    .fil18 {fill:#0967AF}
    .fil31 {fill:#0AB4F1}
    .fil49 {fill:#0F134F}
    .fil12 {fill:#151748}
    .fil40 {fill:#161972}
    .fil36 {fill:#185506}
    .fil4 {fill:#27A1BB}
    .fil46 {fill:#289EBB}
    .fil20 {fill:#2D3292}
    .fil61 {fill:#2DA6C7}
    .fil34 {fill:#373949}
    .fil27 {fill:#392A69}
    .fil19 {fill:#3A1550}
    .fil22 {fill:#3B2543}
    .fil8 {fill:#3B76B7}
    .fil17 {fill:#449C15}
    .fil6 {fill:#45C1BE}
    .fil41 {fill:#4775B0}
    .fil33 {fill:#49B8B9}
    .fil13 {fill:#50B9F0}
    .fil42 {fill:#569653}
    .fil14 {fill:#57C8ED}
    .fil30 {fill:#5AC9F6}
    .fil63 {fill:#66C8F2}
    .fil47 {fill:#675823}
    .fil52 {fill:#6765A4}
    .fil65 {fill:#753289}
    .fil57 {fill:#758990}
    .fil15 {fill:#775094}
    .fil10 {fill:#9AD9F3}
    .fil38 {fill:#A31712}
    .fil0 {fill:#A75169}
    .fil26 {fill:#AE509A}
    .fil3 {fill:#CA3486}
    .fil5 {fill:#CDD554}
    .fil28 {fill:#D0526F}
    .fil53 {fill:#D66419}
    .fil9 {fill:#D7D955}
    .fil24 {fill:#D93785}
    .fil59 {fill:#D9E6EC}
    .fil37 {fill:#E3DB5C}
    .fil44 {fill:#E3DC99}
    .fil21 {fill:#E43784}
    .fil64 {fill:#E5A29D}
    .fil55 {fill:#E5E8EB}
    .fil29 {fill:#E62789}
    .fil48 {fill:#E7DB29}
    .fil51 {fill:#E8ECF4}
    .fil54 {fill:#EBF4F8}
    .fil62 {fill:#ED8E2D}
    .fil56 {fill:#EE6E53}
    .fil43 {fill:#EF7429}
    .fil60 {fill:#F42E30}
    .fil50 {fill:#F4B532}
    .fil39 {fill:#F55035}
    .fil45 {fill:#F5F6F8}
    .fil16 {fill:#F6A10C}
    .fil32 {fill:#F7710D}
    .fil58 {fill:#F9F4EC}
    .fil25 {fill:#FAED08}
    .fil23 {fill:#FAFCFA}
    .fil35 {fill:#FBFBFB}
    .fil11 {fill:#FD0D09}
    .fil1 {fill:#FE4934}
    .fil2 {fill:#FEFEFE}
    .fil66 {fill:#FFCA5E;fill-rule:nonzero}
   ]]>
  </style>
 </defs>
 <g id="Camada_x0020_1">
  <metadata id="CorelCorpID_0Corel-Layer"/>
  <g id="_1933891902560">
   <path class="fil0" d="M7384.23 2088.54l-17.85 -7.76c-26.92,42.86 -107.89,219.01 -128.08,234.16l12.11 -22.67 -233.43 -119.16c14.53,-32.18 44.27,-76.56 62.88,-110.98 77.24,-142.85 100.41,-218.17 160.44,-362.24l191.68 64.66 14.42 -28.01c-1.81,33.36 -120.33,269.91 -145.18,317.07l83.04 34.92z"/>
   <path class="fil1" d="M5906.9 1054.16c-20.42,27.3 -76.15,70.6 -107.74,93.62 -38.94,28.38 -72.29,47.74 -113.77,68.83 -58.02,29.49 -193.68,80.35 -250.47,67.49l-11.55 -0.02 -8.47 24.62c-22.35,0.79 -53.51,-4.34 -77.3,-14.03l-26.43 -12.28c11.55,-21.66 84.87,-109.2 101.93,-118.49 91.05,-6.4 149.5,-23.93 229.6,-64.97 53.41,-27.38 156.28,-102.49 195.46,-169.83 1.17,10.14 11.19,17.06 16.97,26.47l37.91 68.3c5.65,11.01 11.66,18.47 13.87,30.29z"/>
   <path class="fil2" d="M7715.19 1259.82c-33.63,139.33 -84.45,270.61 -138.58,408.19 -27.34,69.49 -52.54,138.72 -83.07,208.8 -31,71.19 -73.65,144.59 -101.76,214.39l-7.56 -2.67 -83.04 -34.92c24.85,-47.16 143.37,-283.71 145.18,-317.07l47.76 -122.3 74.45 23.88c48.26,-88.69 110.14,-287.69 130.93,-383.27 7.83,-6.42 16.73,-11.25 15.67,4.97z"/>
   <path class="fil3" d="M6431.93 1123.82l-37.85 92.93c-10.68,-6.23 -25.03,-15.66 -38.37,-21.61 -7.23,-3.22 -10.31,-4.87 -16.73,-5.02 -15.57,-0.37 -8.83,1.65 -14.16,4.83 -21.85,13.06 -94.96,27.06 -133.11,28.95 -23.68,1.17 -48.7,-0.2 -72.91,-4.75 -36.59,-6.86 -53.23,-23.49 -81.94,-32.23 -17.38,-13.89 -33.5,-27.66 -44.32,-41.93 23.72,-8.59 33.21,-46.08 54.51,-54.97 10.19,-3.28 22.88,7.39 46.06,14.82 80.2,25.7 197.5,-1.7 247.66,-48.11l-58.83 -37.89 8.11 -10.52 16.47 16.9c76.7,46.83 60.86,43.49 125.38,98.61z"/>
   <path class="fil4" d="M5194.83 1152.14c2.83,13.14 3.85,10.3 8.97,22.13 4.07,9.37 3.1,10.78 6.94,19.3 5.41,12.02 13.46,21.58 20.21,36.35 0.1,8.79 2.39,4.49 -3.78,8.99 -20.84,-18.97 -39.22,-64.41 -46.16,-91.23 -30.86,-119.18 -28.05,-205.75 42.34,-330.07 39.07,-69.01 94.55,-130.8 147.64,-185.52 36.41,-37.53 118.71,-133.11 156.39,-156.88l18.26 8.41c22.31,-14.45 55.59,-48.15 78.98,-68.58 22.92,-20.01 57.62,-54.25 79.49,-65.94l31.43 43.75c-14.43,17.97 -85.81,70.09 -109.85,90.44 -74.59,63.13 -140.56,126.56 -206.46,200.26 -21.3,23.84 -82.65,107.68 -98.57,120.35l-38.85 -42.52c-48.97,42 -87.46,140.98 -99.46,205.8 -12.86,69.51 -2.56,88.37 2.89,142.05 1.81,17.89 5.2,29.65 9.59,42.92z"/>
   <path class="fil5" d="M6744.62 2464.23c-10.7,0.39 -18.07,-14.1 -25.34,-26.23 -47.86,-79.86 -45.32,-181.4 -37.18,-273.61 7.81,-88.47 13.38,-163.95 25.9,-254.25 3.97,-28.59 11.07,-58.91 13.24,-87.19 2.52,-18.09 6.37,-59.46 15.76,-75.55l34.6 7.16c13.42,11.77 9.18,1.07 5.5,45.5 -1.36,16.38 -2,27.85 -3.54,44.77 -14.83,163.16 -25.22,367.83 -27.17,531.2 -0.29,25.13 1.88,65.35 -1.78,88.2z"/>
   <path class="fil6" d="M7103.28 587.58l-67.21 90.32 -320.8 -239.33 61 -85.95 153.96 122.12c25.34,17.73 54.85,40.74 81.44,57.64 26.35,16.75 71.45,39.08 91.61,55.2z"/>
   <path class="fil7" d="M5930.02 1089.36c-64.09,74.98 -170.3,140.51 -243.79,175.68 -42.02,20.11 -85.94,36.78 -133.44,47.3 -31.27,6.92 -106.78,22.99 -143.21,11.11 16.02,-16.81 12.81,-27.7 25.34,-39.35 56.78,12.86 192.45,-38 250.47,-67.49 41.49,-21.09 74.83,-40.45 113.77,-68.83 31.59,-23.02 87.32,-66.31 107.74,-93.62 12.58,9.79 17.91,21.39 23.12,35.19z"/>
   <path class="fil8" d="M7108.16 2486.38c-35.54,44.92 -173.51,91.2 -234.34,62.82l-6.38 -0.09c-19.14,-1.37 -33.47,-9.26 -52.6,-20.24 -8.15,-4.68 -45.08,-31.39 -49.14,-37.03 4.39,-29.03 -9.23,-102.18 5.41,-118.71l1.54 6.38c0.22,0.85 0.52,2.2 0.77,3.13 8.94,33.76 17.1,18.7 17.12,18.68 6.13,24.36 6.65,36.98 42.36,63.97 74.51,56.33 180.35,16.09 224.57,-24.78 18.34,10.99 35.53,31.41 50.69,45.88z"/>
   <path class="fil9" d="M7322.87 761.86c-18.95,14.03 -26.53,-1.05 -61.02,12.87 8.14,8.04 18.6,2.16 26.3,1.32 13.5,-1.49 24.68,-2.74 38.85,1.32l0.78 20.11c-82.13,-0.27 -107.7,-0.61 -166.46,26.56 -51.32,23.72 -97.8,61.66 -135.71,123.45l-27.3 -13.33c-54.33,99.77 -15.31,281.95 61.12,325.02 -0.68,8.83 3.56,8.73 -5.23,6.18 -67.11,-55.85 -96.32,-162.75 -85.68,-248.03 3.77,-30.13 10.34,-44.17 18.15,-74.26 10.13,-38.99 11.04,-36.13 39.17,-68.77 31.54,-36.61 75.23,-69.78 109.92,-86.52 -181.5,58.21 -170.89,165.36 -278.24,196.47 -12.68,3.68 -95.05,20.63 -107.7,1.39 12.12,-4.55 58.05,0.52 78.81,-4.46 120.41,-28.86 107.93,-87.76 197.78,-150.66 67.87,-47.51 140.21,-64.16 220.85,-74.73 14.49,-1.91 70.95,-9.49 75.62,6.07z"/>
   <path class="fil10" d="M6540.12 509.49l-21.49 -17.99 -33.58 -32.38c24.18,-32.53 37.57,-47.06 55.05,-89.93 11.54,-28.29 19.49,-67.51 11.42,-86.74 12.51,-22.79 -24.24,-82.52 -34.61,-99.21 -23.85,-38.35 -47.18,-53.65 -88.06,-82.61l33.24 9.96c10.99,5.62 20.94,11.81 30.98,18.94 84.92,60.39 131.2,155.46 112.63,257.12 -10.67,58.41 -32.62,80.19 -65.57,122.84z"/>
   <path class="fil11" d="M7269.49 642.4c29.93,16.58 47.09,17.68 73.71,28.41 24.06,9.71 47.5,19.61 70.69,27.92 45.8,16.39 110.38,49.14 152.18,74.48l-10.09 -3.67c2.06,14.14 -3.38,2.03 2.75,13.04 -118.39,-59.51 -228.03,-93.31 -338.5,-145.73 -59.16,-28.08 -29.33,-8.91 -56.27,-18.27 -16.05,-5.58 -43.5,-22.74 -60.67,-31.01 -20.16,-16.12 -65.25,-38.45 -91.61,-55.2 -26.58,-16.9 -56.09,-39.91 -81.44,-57.64l-153.96 -122.12c-7.66,-11.36 -10.7,-12.58 -20.97,-22.54 -13.12,-12.73 -12.95,-9.37 -7.59,-25.31l8.26 -7.99c148.65,140.1 303.91,257.77 513.52,345.63z"/>
   <path class="fil12" d="M6769.88 2354.07c1.63,4.89 2.27,2.77 2.49,9.9 0.21,6.69 -0.13,3.48 -1.25,9.16 -14.65,16.53 -1.03,89.68 -5.41,118.71 -13.34,-10.35 -14.83,-13.22 -21.08,-27.61 3.66,-22.85 1.49,-63.07 1.78,-88.2 1.95,-163.37 12.34,-368.04 27.17,-531.2 1.54,-16.92 2.18,-28.39 3.54,-44.77 3.68,-44.44 7.91,-33.74 -5.5,-45.5 7.59,-6.29 6.58,-52.74 7.22,-68.2l-0.14 -74.06c-1.29,-39.14 -5.25,-69.93 -17.64,-105.58 -9.95,-28.61 -11.61,-18.15 -8.39,-28.62l20.95 0.78c-7.59,3.76 -2.69,9.15 -4.84,0.35 14.92,13.73 14.33,30.3 17.62,50.62 1.19,7.34 0.43,2.58 1.55,8.78l1.04 5.71c0.26,1.39 1.55,7.44 2.34,11.6 1.52,7.95 2.72,17.14 3.67,26.98 3.47,36.15 2.96,70.88 1.51,108.51l-19.46 251.1c0.78,8.47 5.31,16.3 5.64,26.46l-15.18 331.52c-0.37,10.24 -1.03,17.01 -1.15,28.17l3.54 25.39z"/>
   <path class="fil12" d="M5691.19 740.6c-13.91,16.6 -44.57,28.83 -59.72,37.7l-123.92 75.46c-21.44,14.14 -39.21,28.27 -60.21,42 -66.13,43.2 -184.2,124.49 -219.59,223.86 2.16,-33.55 123.83,-127.25 153.82,-149.42l63.48 -42.8c12.17,-7.89 10.46,-9.54 22.7,-16.35l44.15 -25.47c14.01,-7.19 29.17,-21.83 46.33,-23l-2.12 7.81c-14.37,14.21 -92.79,57.21 -124.85,79.14l-38.43 24.72c-239.77,175.44 -155.77,221.02 -154.03,261.3l-7.83 -5.63c-6.75,-14.78 -14.8,-24.34 -20.21,-36.35 -3.85,-8.52 -2.88,-9.93 -6.94,-19.3 -5.12,-11.83 -6.14,-8.99 -8.97,-22.13 11.78,-7.04 4.92,-15.08 14.49,-38.45 43.07,-105.16 125.57,-157.81 208.86,-220.44 38.81,-29.18 146.25,-94.61 199.72,-127.61l66.54 -34.65 -3.22 5.99 9.97 3.62z"/>
   <path class="fil13" d="M7743.3 952.16c20.59,74.65 16.12,153.67 -0.74,234.42 -2.96,14.13 -5.48,26.31 -8.87,40.66 -3.72,15.74 -4.02,33.09 -18.5,32.59 1.06,-16.22 -7.84,-11.4 -15.67,-4.97l-16.52 -9.32 25.9 -28.81c-15.58,-4.85 -8.18,-4.48 -19.88,2.86l10.73 -65.62c14.2,-12.6 12.15,-134.43 10.07,-158.66 -4.66,-54.22 -24.94,-101.98 -55.23,-142.87l14.02 -19.09c35.64,27.76 48.71,103.07 74.7,118.82z"/>
   <path class="fil14" d="M7458.14 1350.77c-15.36,0.01 -34.6,6.32 -49.57,14.55 -10.56,-8.12 -4.44,-1.63 -11.16,-10.27l-3 -8.64 -2.14 -11.94c73.59,-24.8 103.38,-25.56 172.33,-96.65 27.42,-28.27 49.91,-67.5 64.41,-107.34 3.81,-10.43 6.79,-19.98 9.17,-30.35 8.92,-38.95 20.43,-21.56 9.48,-71.38 -47.08,-214.12 -290.53,-267.71 -320.67,-251.39 -14.18,-4.06 -25.35,-2.81 -38.85,-1.32 -7.7,0.84 -18.16,6.72 -26.3,-1.32 34.49,-13.92 42.07,1.16 61.02,-12.87 22.19,17 137.6,-2.91 249.86,115.18 54.19,57 75.53,111.18 84.95,182.53 3.25,24.57 1.27,8.98 16.35,25.17 -32.25,143.07 -118.19,219.94 -215.89,266.03z"/>
   <path class="fil15" d="M6744.62 2464.23c6.24,14.4 7.74,17.26 21.08,27.61 4.06,5.64 40.99,32.36 49.14,37.03 19.13,10.98 33.46,18.87 52.6,20.24l6.38 0.09 -11.23 23.59 -18.07 -6.33c-42.25,-16.58 -59.37,-29.85 -93.81,-54.79 -9.45,-9.74 -20.59,-20.73 -28.85,-30.92 -11.11,-13.73 -16.18,-24.83 -27.36,-37.36 -0.22,-10.95 -12.74,-32.5 -19.74,-41.5 -1.13,-18.96 -9.96,-44.01 -14.8,-68.44 -10.08,-50.95 -6.83,-177.08 5.09,-219.35 7.59,-26.88 8.81,8.93 16.38,-73.7 6.97,-76.09 17.02,-124.15 24.15,-188.3 1.95,-17.52 -2.15,-18.19 1.14,-35.5l14.51 6.34c-2.17,28.28 -9.27,58.6 -13.24,87.19 -12.53,90.3 -18.09,165.78 -25.9,254.25 -8.14,92.22 -10.68,193.75 37.18,273.61 7.27,12.14 14.65,26.62 25.34,26.23z"/>
   <path class="fil16" d="M6338.88 189.99c-4.92,-18.09 5.27,-18.14 -8.52,-30.9 -13.43,33.77 12.92,10.35 -24.63,54.91 -15.57,18.48 -5.11,6.7 -4.28,13.79 19.26,-3.03 16.95,-20.72 41.16,-26.11 14.55,-3.24 29.58,-0.62 41.35,-11.37 -14.92,-6.44 -29.08,-0.14 -45.08,-0.32zm77.89 -7.39c-11.24,5.83 -4.31,30.96 -20.43,54.88 -14.93,22.16 -30.23,20.69 -40.38,35.09 -12.91,2.54 -44.6,6.85 -53.69,-4.89 -64.16,-52.5 -31.21,-56.14 -44.76,-86.03 22.39,-33.82 47.29,-48 77.46,-49.35 35.99,-1.62 73.51,19.82 81.8,50.29z"/>
   <path class="fil17" d="M6100.64 444.36c14.4,-2.54 41.49,-67.55 44.13,-77.03 -15,-9.34 -13.34,-4.77 -26.29,-0.32 -22.91,7.85 -59.26,19.69 -77.43,34.49 22.55,7.24 15.01,-1.59 37.59,-6.34l27.24 18.38c1.05,6.97 1.41,0.65 -0.68,10.21l-4.56 20.62zm82.17 -62.49l2.94 0.93c3.22,36.83 9.43,41.45 -18.66,69.79 -47.52,47.94 -107.11,25.96 -132.29,-5 -15.74,-19.36 -19.97,-42.38 -2.55,-71.05 12.33,-17.92 23.98,-28.77 45.32,-33.37 15.73,9.17 32.11,-1.63 53.1,3.6 34.18,8.5 30.42,25.92 52.14,35.1z"/>
   <path class="fil18" d="M6904.85 1486.02l1.76 -12.34 3.3 -12.04c106.1,-8.51 98.02,4.03 229.06,-19.11 48.88,-8.62 176.85,-43.41 215.63,-67.79 8.39,-3.05 13.05,-3.9 23.74,-6.8 10.86,-2.95 13.39,-1.18 19.08,-12.89 6.72,8.64 0.6,2.15 11.16,10.27 14.96,-8.22 34.21,-14.54 49.57,-14.55 -42.55,39.71 -198.38,92.87 -264.03,107.93 -71.87,16.48 -215.89,39.68 -289.26,27.31z"/>
   <path class="fil19" d="M6713.53 211.58c21.28,35.94 115.51,115.81 121.85,127.56 -12.66,-4.29 -2.81,-5.66 -12.15,-1.3 13.28,23.15 82.93,75.13 109.23,95.5 40.34,49.47 273.83,165.93 341.62,200.9l-4.6 8.16c-209.61,-87.86 -364.87,-205.53 -513.52,-345.63l-109.89 -123.27c-53.36,-64.96 -119.26,-101.08 -130.64,-114.39 55.15,9.08 122.54,77.1 159.43,117.99l28.56 33.22c9.31,5.76 0.81,9.72 10.1,1.26z"/>
   <path class="fil20" d="M6354.76 373.45c-3.69,-12.76 -0.92,-8.57 -0.67,-17.1 0.74,-24.73 4.8,-6.33 -7.89,-20.05l-6.15 41.13 -57.79 12.62c11.96,12.69 38.16,-2.6 60.79,-0.15 -4.08,14.65 -7.36,22.37 -0.79,36.79 6.1,-5.49 0.4,10.66 6.29,-9.52l3.22 -29.8 52.31 -14.27c-17.52,-11.41 -28.77,0.96 -49.31,0.35zm70.5 -10.43l-7.73 1.18c5.1,16.74 -0.33,43.91 -17.83,63.22 -16.43,18.11 -33.8,21.67 -50.84,25.44l6.02 5.57c-11.85,0.84 -37.76,-3.55 -51.31,-10 -21.27,-10.15 -28.84,-25.27 -36.93,-38.41 7.56,-0.93 0.99,8.58 8.85,-6.02 -21.51,-55.11 48.17,-72.55 57.24,-85.93 17.52,-0.84 34.78,-0.97 54.71,8.69 9.82,4.76 16.91,9 24.55,16.27 11.32,10.77 11.37,9.87 13.27,19.99z"/>
   <path class="fil21" d="M5413.09 1163.9c-17.05,9.29 -90.38,96.83 -101.93,118.49l26.43 12.28 -49.4 -20.74c72.13,-118.1 247.27,-260.41 373.3,-332.36 15.48,-8.85 42.23,-27.62 60,-25.61l9.82 7.82c-13.42,20.97 -43.45,28.83 -77.97,48.9 -66.27,38.52 -198.68,133.25 -240.26,191.23z"/>
   <path class="fil22" d="M6673.46 1381.38c9.26,-5.97 9.29,-5.72 13.07,-18.46l-12.04 -11.23c42.66,-3.2 71.6,-1.91 104.94,-34.77 45.59,-44.94 39.55,-100.59 46.68,-121.6 -13.82,27.62 -8.34,11.72 -16.17,15.7 28.6,-47.83 24.33,-54.85 31.24,-100.8 37.45,56.83 30.89,217.87 -79.88,263.52 -13.69,5.64 -23.06,10.34 -42.42,12.52 -8.81,1 -18.32,2.53 -24.3,2.79 -2.01,0.09 -10.73,-0.37 -12.4,-0.96 -8.92,-3.16 -4.94,-0.25 -8.73,-6.71z"/>
   <path class="fil23" d="M6428.85 100.64c40.88,28.96 64.21,44.26 88.06,82.61 10.38,16.69 47.12,76.42 34.61,99.21l-9.91 3.11c-10.84,-12.96 -11.43,-54.81 -50.84,-106.09 -77.65,-101.03 -220.45,-127.12 -338.87,-92.04 -14.36,4.26 -18.05,9.49 -27.99,0.68 -1.3,-5.32 5.78,-1.85 -10.08,-11.38 25.89,-9.02 48.11,-19.07 72.86,-24.7 24.7,-5.6 48.93,-11.54 75.58,-15.84 44.54,-7.2 113.37,-11.83 163.57,-0.91 3.86,1.11 7.5,1.83 11,3.87 8.69,5.07 2.92,1.43 6.18,7.29 -63.94,-19.91 -177.25,-10.22 -221.8,5.76 64.4,5.17 138.3,-0.6 207.61,48.43z"/>
   <path class="fil24" d="M7186.86 2463.92l-34.18 -16.26 85.61 -132.72c20.19,-15.15 101.16,-191.31 128.08,-234.16l17.85 7.76 7.56 2.67c-56.97,120 -135.86,253.25 -208.46,362.21 1.91,9.87 -7.53,-1.91 3.53,10.5z"/>
   <path class="fil25" d="M5927.5 176.38c-3.29,13.17 -25.92,18.31 -40.18,35.81 -9.04,3.53 -31.91,17.24 -42.05,23.58 -41.14,38.44 -100.45,70.07 -141.16,113.34 -21.87,11.7 -56.57,45.93 -79.49,65.94 -23.39,20.43 -56.67,54.14 -78.98,68.58l-18.26 -8.41c13.28,-30.81 243.19,-214.42 296.99,-252.15l75.85 -52.6c19.24,-12.12 8.34,-6.18 23.75,-4.09 -6.67,8.48 -6.78,4.88 3.53,10z"/>
   <path class="fil26" d="M6713.53 211.58c-9.29,8.46 -0.79,4.51 -10.1,-1.26l-28.56 -33.22c-36.89,-40.89 -104.27,-108.91 -159.43,-117.99 11.38,13.32 77.28,49.43 130.64,114.39l109.89 123.27 -8.26 7.99c-73.44,-59.84 -105.18,-135.86 -207.82,-210.07 -55.48,-40.12 -53.81,-31.72 -96.85,-48.25 -3.27,-5.86 2.51,-2.22 -6.18,-7.29 -3.5,-2.04 -7.14,-2.76 -11,-3.87 14.79,-6.61 61.89,4.01 84.58,8.5 66.06,13.1 120.78,49.41 166.37,97.93 32.51,34.58 21.49,43.68 36.72,69.86z"/>
   <path class="fil27" d="M6435.74 480.35c-13.21,21.56 0.52,15.84 14.96,13.12 -19.59,34.05 -105.42,58.05 -95.33,188.41 2.1,27.11 33.85,168.49 -22.34,192.71 3.82,-8.67 9.61,-9.19 -1.82,-15.98 -12.07,-7.16 -2.42,-2.09 -17.3,6.72 40.01,-62.03 23.66,-105.28 16.75,-156.28 -7.43,-54.92 -6.32,-85.34 14.86,-133.96 1.51,-3.45 3.89,-8.19 4.6,-11.59 3.03,-14.53 4.12,-5.09 -0.53,-15.82 11.02,-7.55 8.52,-2.82 16.63,-9.44 0.89,-0.72 5.5,-5.64 6.11,-6.67 7.93,-13.54 2.76,-5.57 2.54,-10.76l30.43 -21.73c8.15,-6.44 20.98,-18.97 30.43,-18.72z"/>
   <path class="fil16" d="M7009.02 2580.03c-12,0.15 -41.65,7.72 -53.47,10.71 -15.8,-1.81 -31.98,1.14 -49.93,-0.54 -7.03,-0.66 -19.32,-1.57 -26.72,-3.2 -16.14,-3.57 -17.79,-1.6 -16.3,-14.22l11.23 -23.59c60.83,28.38 198.8,-17.89 234.34,-62.82 13.63,-3.65 33.06,-22.59 44.51,-38.73l34.18 16.26c-19.11,27.12 -57.96,52.87 -85.14,70.86 -15.61,10.32 -31.09,19.08 -47.07,26.66 -17.19,8.16 -32.67,10.77 -45.62,18.59z"/>
   <path class="fil28" d="M6737 1747.38c-9.39,16.09 -13.25,57.46 -15.76,75.55l-14.51 -6.34c8.26,-44.79 26.89,-113.4 14.43,-147.8 8.43,-15.06 8.55,-22.66 -1.82,-32.71 -16,-14.49 -24.1,-45.44 -54.81,-71.91 -25.13,-21.65 -62.9,-38.74 -91.97,-55.86 -86.52,-50.97 -91.99,-79.56 -141.36,-127.81l14.66 -17.75c26.9,35.31 48.3,64.64 88.89,95.52 58.57,44.57 180.77,87.69 203.46,177.66 7.51,29.78 -4.78,-1.57 -3.55,19.98 0.56,9.84 3.97,13.78 3.82,29.54 -0.22,23.02 -5.66,48.28 -1.48,61.93z"/>
   <path class="fil11" d="M6044.41 211.65c7.73,18.02 20.61,29.98 44.31,41.34l59.66 -54.59c-18.59,-13.24 -39.02,-22.91 -60.09,-27.38l-8.73 24.45c-19.21,-4.52 -25.9,-3.42 -35.14,16.19zm134.24 -19.4c-0.65,11.25 0.19,14.8 -0.85,28.52 -15.03,-8.06 -13.56,38.61 -75.72,49.93 -20.67,3.76 -17.72,-6.78 -30.83,5.67 -28.99,-10.27 -40.96,-24.76 -54.5,-42.46 -0.02,-0.86 0.46,-2.99 0.1,-2.58l0.79 -11.5c0.41,-15.39 4.75,-4.39 -2.34,-15.9 16.48,0.84 7.72,0.04 21.57,-16.41 26.69,-31.71 41.11,-20.06 54.64,-37.12 23.48,-12.22 69.68,6.55 87.14,41.85z"/>
   <path class="fil26" d="M7743.3 952.16c-25.99,-15.75 -39.06,-91.06 -74.7,-118.82l-14.02 19.09 -5.14 -8 14.02 -14.33c-7.01,-23.12 -38.24,-43.5 -61.1,-62.53 -24.92,-20.76 -64.62,-36.29 -96.21,-52.73 65.32,-50.19 234.6,125.09 241.58,190.18 1.96,18.26 -11.34,31.35 -4.42,47.13z"/>
   <path class="fil29" d="M7649.44 844.43c-27.59,-26.43 -48.72,-51.66 -83.38,-71.21 -41.8,-25.34 -106.37,-58.09 -152.18,-74.48 -23.19,-8.31 -46.63,-18.21 -70.69,-27.92 -26.61,-10.73 -43.78,-11.83 -73.71,-28.41l4.6 -8.16 4.89 -10.73 227.17 91.34c31.59,16.43 71.29,31.97 96.21,52.73 22.86,19.03 54.09,39.41 61.1,62.53l-14.02 14.33z"/>
   <path class="fil30" d="M6505.37 1090.38c-10.94,-1.17 -11.59,5.4 -17.88,14.87 -34.81,33.59 -61.67,86.9 -66.88,136.44 -2.51,23.83 0.96,44.88 4.79,63.62 4.7,23.01 9.05,23.85 16.63,41.15 6.3,14.39 5.66,3.07 3.83,16.29l-14.66 17.75c-15.29,-11.91 -29.3,-53.59 -33.39,-69.14 -9.11,-34.66 -2.67,-50.56 -6.61,-79.45l2.88 -15.16 37.85 -92.93 61.05 -67.58c13.86,12.74 21.17,17.41 12.4,34.14z"/>
   <path class="fil31" d="M6333.03 874.59c-41.74,68.31 -142.42,109.36 -194.5,117.01 -96.15,14.14 -151.83,-18.16 -228.92,-88.38l8.17 -13.75c19.55,0.46 82.78,100.6 214.47,83.48 37.86,-4.92 64.02,-15.3 97.79,-32.95 23.22,-12.14 69.41,-45.67 83.87,-74.67 14.88,-8.81 5.23,-13.89 17.3,-6.72 11.43,6.79 5.63,7.31 1.82,15.98z"/>
   <path class="fil6" d="M6719.34 1636.08c10.37,10.05 10.25,17.64 1.82,32.71 -60.89,-11.16 -97.26,-5.12 -160.83,-48.08 -40.5,-27.38 -89.37,-75.91 -105.51,-111.42 31.69,-22.15 30.1,0.58 52.58,26.52 50.43,58.19 147.09,115.67 211.95,100.27z"/>
   <path class="fil32" d="M6940.48 1558.77l-1.13 -8.72c8.97,-17.38 29.01,-13.09 44.13,-15.08l315.65 -54.28 -1.31 11.51 12.91 -1.42c9.45,-1.2 -0.49,-0.64 8.93,-1.11 -11.48,25.78 -367.72,73.1 -379.18,69.1z"/>
   <path class="fil31" d="M6790.55 2401.32c-0.02,0.02 -8.18,15.07 -17.12,-18.68 -0.25,-0.93 -0.55,-2.28 -0.77,-3.13l-1.54 -6.38c1.12,-5.68 1.46,-2.47 1.25,-9.16 -0.22,-7.13 -0.86,-5.01 -2.49,-9.9 5.73,-12.99 15.6,-143.08 19.44,-173.03 2.92,-22.81 16.87,-160.91 26,-168.9 3.65,15.06 -3.1,4.37 7.41,16.73l8.22 -17.06c2.37,9.66 -21.02,173.34 -23.99,197.78 -3.92,32.31 -6.84,63.84 -9.64,96.5 -2.56,29.9 -2.18,68.65 -6.78,95.23z"/>
   <path class="fil33" d="M6800.84 889.71c-12.38,18.95 -29.65,34.35 -44.75,43.47 -131.73,-77.73 -82.24,-63.65 -42.93,-110.24l87.68 66.77z"/>
   <path class="fil34" d="M7354.6 1374.74c-55.78,3.55 -94.04,8.32 -158.6,-10.89 -40.4,-12.02 -138.86,-58.89 -141.81,-98.49 8.79,2.55 4.56,2.65 5.23,-6.18 28.58,17.66 46.51,40.65 78.39,58.21 58.17,32.05 114.32,43.33 177.95,40.8 30.97,-1.23 53.3,-11.26 78.65,-11.78l3 8.64c-5.69,11.71 -8.22,9.94 -19.08,12.89 -10.69,2.91 -15.34,3.76 -23.74,6.8z"/>
   <path class="fil35" d="M6342.44 1212.22c-48.56,18.08 -87.54,27.95 -146.63,33.29 -42.57,3.84 -132.23,-3.48 -168.84,-45.01l9.9 -13.58c28.71,8.74 45.34,25.36 81.94,32.23 24.21,4.55 49.23,5.91 72.91,4.75 38.14,-1.89 111.26,-15.89 133.11,-28.95 4.78,2.05 8.3,2.24 12.75,6.2 8.27,7.39 5.22,1.68 4.88,11.08z"/>
   <path class="fil36" d="M6032.25 376.54c-17.42,28.67 -13.2,51.69 2.55,71.05 25.17,30.97 84.76,52.95 132.29,5 28.09,-28.34 21.88,-32.96 18.66,-69.79 37.29,43.75 -4.85,123.66 -85.58,125.04 -106.61,1.81 -112.31,-107.91 -67.91,-131.31z"/>
   <path class="fil23" d="M6315.26 989.28l-25.18 19.03 -8.11 10.52c-14.87,-2.15 -5.83,-2.58 -23.44,5.88 -7.77,3.73 -10.86,5.77 -18.62,9.51 -34.54,16.61 -87.53,25.54 -127.69,27.16 -44.56,1.78 -159.24,-18.74 -190.92,-64.11 11.44,-12.8 6.24,-12.1 24.22,-1.51 7.86,4.64 16.93,12.07 25.84,17.27 77.47,45.25 179.37,38.43 257.59,6.86 17.06,-6.88 26.81,-10.44 43.03,-19.75 11.06,-6.35 30.02,-21.67 40.45,-25.49 9.02,14.88 3.12,3.61 2.84,14.62z"/>
   <path class="fil37" d="M6531.65 776.22c-26.24,-16.93 -70.26,-76.82 -81.86,-102.71 28.59,-3.2 110.14,33.51 141.58,50.5 -9.4,15.78 -44.89,44.29 -59.72,52.21z"/>
   <path class="fil38" d="M6016.75 233.91c13.55,17.69 25.51,32.19 54.5,42.46 42.69,14.74 86.77,-8.55 106.55,-55.6 1.04,-13.73 0.2,-17.27 0.85,-28.52 35.54,39.76 4.29,100.34 -51.8,116.69 -42.14,12.29 -121.52,-13.07 -110.11,-75.02z"/>
   <path class="fil39" d="M5691.19 740.6l-9.97 -3.62 3.22 -5.99c59.11,-30.1 51.47,-44.44 52.85,-102.79 1.77,-74.99 17.93,-187.24 45.91,-258.14 9.29,-23.52 17.58,-46.78 29.13,-69.41l30.39 -49.95c6.32,-14.89 3.4,-6.23 2.56,-14.93 10.14,-6.33 33.01,-20.05 42.05,-23.58 -75.22,111.31 -93.87,134.73 -126.8,280.84 -17.67,78.4 -10.86,182.25 -19.46,200.55 -11.5,24.45 -33.47,31 -49.87,47.02z"/>
   <path class="fil40" d="M6261.92 382.12l4.72 27.9c8.09,13.14 15.66,28.26 36.93,38.41 13.55,6.45 39.46,10.84 51.31,10 19.8,-6.4 38.42,-11.03 54.16,-30.96 18.03,-22.84 16.94,-43.85 16.22,-64.45 21.1,15.62 19.18,49.24 3.49,76.62 -12.24,21.36 -40.73,38.87 -66.17,43.49 -62.78,11.4 -132.9,-40.08 -100.65,-101.01z"/>
   <path class="fil41" d="M6904.85 1486.02c-36.36,7.31 -92.71,-7.12 -131.25,-7.15l-20.95 -0.78c-29.36,-16.72 -94.52,-29.16 -139.21,-51.66 -22.97,-11.57 -45.79,-25.43 -65.23,-41.3 -14.55,-11.87 -39.47,-28.13 -37.62,-46.39 5.58,3.66 2.91,3.38 6.52,-3.89 47.58,56.6 117.06,91.78 191.33,112.98 36.82,10.51 67.82,16.78 103.26,20.34 29.91,3 70.05,1.4 94.91,5.51l-1.76 12.34z"/>
   <path class="fil42" d="M5917.78 889.48l-8.17 13.75c-22.1,-20.68 -58.09,-77.4 -73.1,-105.79 -0.94,-9.4 8,2.64 -4.3,-10.47 -0.25,-1.04 -0.22,-3.6 -0.83,-3.12 -4.1,3.25 0.02,0.06 -3.79,-14.96l-15.47 -50.7c-4.98,-23.31 -10.52,-46.15 -12.77,-73.41 -3.02,-36.54 -8.37,-121.53 7.28,-159.06l0.26 11.11 6.08 -6.63c2.46,9.93 -2.7,88.39 -2.61,107.33 0.17,37.34 5.11,70.86 12.27,104.68 9.81,46.38 44.42,147.82 95.13,187.27z"/>
   <path class="fil43" d="M5992.55 1144.99c10.82,14.27 26.93,28.04 44.32,41.93l-9.9 13.58c-22.05,-17.09 -39.4,-33.82 -55.66,-53.66 -16.76,-20.44 -26.4,-40.58 -41.29,-57.48 -5.2,-13.81 -10.54,-25.4 -23.12,-35.19 -2.21,-11.82 -8.21,-19.28 -13.87,-30.29l-37.91 -68.3c-5.78,-9.41 -15.8,-16.33 -16.97,-26.47l-10.26 -13.51 4.82 -8.78c12.1,-7.63 15.46,5.7 24.1,20.1 36.29,60.55 101.61,183.05 135.75,218.08z"/>
   <path class="fil44" d="M5812.99 490.19l-6.08 6.63 -0.26 -11.11c9.89,-67.09 39.93,-143.65 74.84,-206.57 58.36,-105.18 94.16,-108.74 134.07,-151.43 -21.58,9.89 -67.87,31.31 -88.06,48.66 -10.31,-5.12 -10.2,-1.52 -3.53,-10 16.21,-9.51 30.78,-17 46.58,-26.21l93.42 -45.61c27.97,-9.55 31.61,-19.98 49.87,-17.82 15.86,9.53 8.78,6.05 10.08,11.38 -67.57,16.63 -144.95,65.97 -196.73,135.43 -67.05,89.96 -87.98,163.71 -114.2,266.65z"/>
   <path class="fil45" d="M7520.82 1895.89c-0.53,-4.68 -1.17,-2.5 0.62,-10.38 0.96,-4.22 2.33,-7.18 4.01,-11.17 2.34,-5.54 6.53,-13.33 9.27,-19.06 5.37,-11.24 10.54,-22.48 15.66,-33.84 11.73,-25.98 22.88,-52.19 33.91,-78.46 20.39,-48.57 38.92,-97.38 56.78,-146.58 17.28,-47.62 34.62,-94.91 48.9,-143.31l34.77 -123.94c4.25,-10.95 0.89,-2.8 5.06,-8.98l5.19 -4.86c4.1,20.56 -31.4,126.08 -36.7,144.06 -15.11,51.23 -141.33,398.52 -171.71,432.47 -0.59,0.66 -2.9,2.74 -2.82,2.13 0.08,-0.61 -1.91,1.4 -2.96,1.92z"/>
   <path class="fil46" d="M6540.12 509.49c-25.26,24.99 -46.99,41.17 -72.79,62.97 -42.61,36.01 -37.85,39.88 -67.73,88.07 -13.25,-5.8 -5.48,-5.32 -13.8,-1.96l-10.1 -6c22.7,-73.74 97.47,-115.24 142.93,-161.07l21.49 17.99z"/>
   <path class="fil33" d="M6838.32 1106.48l-10 0.54 -1.48 14.63c-0.62,-0.14 -1.23,-1.39 -1.64,-0.96 -3.09,3.21 -7.2,-20.34 -19.52,-39.51 -39.27,-61.13 -102.88,-62.08 -156.02,-55.89l-9.91 3.77 -15.77 -8.35c-1.53,-9.59 -0.68,-3.25 1.41,-14.34 39.88,1.2 65.57,-19.97 125.7,3.72 45.96,18.1 85.78,61.38 87.23,96.4z"/>
   <path class="fil17" d="M6940.48 1558.77c-10.65,6.82 -13.94,6.09 -25.57,13.07 -47.93,28.69 -57.68,156.99 -62.55,205.8 -3.59,35.95 -25.86,213.41 -21.41,234.16l-8.22 17.06c-10.51,-12.37 -3.77,-1.67 -7.41,-16.73 8.51,-28.75 11.27,-92.2 14.34,-124.34 4.01,-41.92 7.52,-80.93 12.56,-122.33 9.59,-78.86 13.44,-194.69 97.14,-215.41l1.13 8.72z"/>
   <path class="fil47" d="M7201.86 1061.87c-10.12,38.95 -46.43,47.98 -61.33,80.8 6.69,16.92 28.79,33.44 48.24,44.45 41.6,23.55 29.03,2.2 55.97,-5.14 -1.68,9.59 -3.89,2.54 2.87,9.87 2.44,-3.5 4.85,-7.82 7.98,-10.96 8.81,-8.79 5.25,-3.88 9.03,-5.87 -16,28.26 -26.43,49.36 -58.79,41.3 -11.86,-2.95 -126.48,-47.7 -64.75,-109.54 11.01,-11.04 43.39,-49.64 50.83,-54.74l0.78 14.83c9.03,-0.63 2.05,11.84 9.17,-4.98z"/>
   <path class="fil26" d="M6630.23 1038.41c-3.78,-8.42 11.21,-0.42 -5.96,-8.31 -23.56,11.16 -40.87,29.81 -52.62,56.74 -25.8,23.2 -24.11,66.75 -19.79,88.98 11.05,56.83 49.51,40.2 21.89,75.34 -107.24,-113.33 -2.81,-218.99 50.23,-230.47l15.77 8.35 9.91 -3.77c-8.63,16.28 -2.33,9.88 -19.43,13.13z"/>
   <path class="fil48" d="M7682.99 1245.53c-6.25,2.12 -71.09,71.68 -81.83,81.96 -25.33,24.25 -63.18,51.17 -89.34,67.62 -98.18,61.74 -110.96,55.39 -192.17,94.56 -9.42,0.47 0.52,-0.09 -8.93,1.11l-12.91 1.42 1.31 -11.51 77.32 -25.16c10.35,-4.56 14.61,-7.34 26.83,-12.85 31.76,-14.31 68.15,-34.85 102.31,-56.37 62.6,-39.46 130.81,-101.04 183.42,-166.73 11.7,-7.33 4.3,-7.7 19.88,-2.86l-25.9 28.81z"/>
   <path class="fil49" d="M6674.49 1351.69l12.04 11.23c-3.78,12.74 -3.81,12.49 -13.07,18.46 -45.08,-31.72 -75.6,-24.82 -123.31,-74.37 -27.09,-28.14 -43.17,-41.36 -40.69,-73.46 0.91,-11.79 -1.98,-15.9 6.11,-22.35 16.71,39.4 20.95,47.23 53.63,83.21 24.31,26.76 65.78,46.58 105.28,57.28z"/>
   <path class="fil43" d="M7649.44 844.43l5.14 8c30.29,40.89 50.58,88.65 55.23,142.87 2.08,24.23 4.13,146.06 -10.07,158.66 -7.45,-12.72 0.43,-81.65 0.89,-102.64 0.9,-40.7 -1.71,-68.95 -9.53,-102.51 -13.5,-57.9 -60.09,-120.34 -132.39,-166.22 -6.12,-11.01 -0.69,1.1 -2.75,-13.04l10.09 3.67c34.65,19.55 55.78,44.77 83.38,71.21z"/>
   <path class="fil50" d="M6315.26 989.28c0.28,-11.01 6.18,0.27 -2.84,-14.62 42.05,-27.63 86.24,-102.85 87.45,-158.22 1.13,-52.04 -26.62,-109.78 -14.07,-157.87 8.31,-3.37 0.55,-3.85 13.8,1.96 -8.68,19.65 0.55,62.17 3.56,80.11 5.03,29.98 12.2,48.59 9.2,84 -4.82,56.84 -52.59,140.97 -97.1,164.63z"/>
   <path class="fil51" d="M7364.98 1091.35c69.5,-86.3 -62.42,-163.27 -122.83,-92.31 -33,38.75 -23.26,87.41 13.15,109.96 39.07,24.21 87.05,10.44 109.68,-17.65zm26.45 -60.91l3.27 18.29c-17.38,36.55 -16.88,55.21 -55.71,72.72 -64.08,28.89 -133.85,-16.87 -124.12,-84.06 6.31,-43.64 38.55,-56.12 58,-73.48 11.86,0.63 23.78,2.16 36.86,-4.86 50.25,20.64 72.09,22.26 81.71,71.39z"/>
   <path class="fil50" d="M7278.97 623.51l-4.89 10.73c-67.79,-34.96 -301.29,-151.43 -341.62,-200.9l4.27 -8.49c95.85,73.7 229.9,145.77 342.24,198.66z"/>
   <path class="fil52" d="M7348.41 1152.65l4.43 -7.46c30.28,16.1 55.95,50.47 83.35,34.49 21.01,-12.27 51.64,-43.75 55.44,-71.14 -17.02,-23.71 -60.05,-30.47 -83.97,-57.42l-4.24 -10.49c9.43,-5.03 -8.65,-16.42 14.37,1.07 -0.76,21.37 64.59,43.54 85.25,54.8 18.23,63.46 -80.97,106.86 -82.36,106.91 -20.08,-7.21 -27.05,-11.66 -44.38,-23.6 -27.66,-19.05 -22.97,-15.4 -27.89,-27.16z"/>
   <path class="fil33" d="M5994.98 795.3c-8.78,-17.1 -0.72,-5.29 -11.73,-15.39 -6,18.42 -4.63,2.14 -2.18,16.79l-8.22 -5.72c-16.87,-33.96 -26.84,-41.8 -26.07,-83.61 0.62,-34.14 22.38,-76.93 49.86,-90.66l10.39 6.02 -0.63 5.79c-0.19,0.7 -0.43,2.09 -0.7,2.85 -4.66,13.42 -14.41,16.37 -24.23,32.89 -9.21,15.49 -13.48,32.63 -13.08,48.12 0.37,14.62 2.85,28.84 9.96,43.32 8.14,16.59 24.21,21.92 16.62,39.6z"/>
   <path class="fil53" d="M6248.31 200.05c2.28,4.63 4.52,26.88 16.26,43.22 4.94,6.86 27.51,33.52 37.71,24.43 9.08,11.74 40.78,7.42 53.69,4.89 35.03,8.93 61.46,-44.99 65.16,-79.38 5.29,9.69 3.22,2.29 4.85,14.35 14,103.57 -200.96,131.5 -177.67,-7.49z"/>
   <path class="fil12" d="M7417.78 1041.7c-23.02,-17.49 -4.94,-6.1 -14.37,-1.07l4.24 10.49c-13.94,-10.57 -3.13,-7.65 -12.95,-2.39l-3.27 -18.29c9.01,-4.86 6.89,-9.01 15.41,-23.66 26.11,-44.88 49.33,-40.9 58.42,-78.52 -8.82,-12.57 -30.51,-27.05 -38.49,-40.32l10.95 3.63c-4.51,-13.39 -21.11,-17.35 -40.73,-27.25l15.82 2.99c24.26,7.51 77.77,39.63 69.01,74.04 -5.52,21.72 -23.19,32.09 -35.69,45.24 -27.54,28.96 -29.08,40.87 -28.36,55.11z"/>
   <path class="fil54" d="M6245.21 718.12l-4.1 14.38c-22.45,63.07 -55.95,91.73 -103.92,107.02 -52.34,16.68 -99.1,12.5 -150.39,-38.81l-5.72 -4.01c-2.45,-14.66 -3.83,1.63 2.18,-16.79 11.01,10.1 2.95,-1.71 11.73,15.39 29.03,24.48 38.08,35.58 79.38,41.85 26.43,4.01 55.35,-2.89 76.51,-12.27 58.25,-25.85 82.74,-80.02 84.7,-142.73l6.36 -5.77c5.32,11.08 3.64,5.86 3.58,20.81 -0.03,6.51 -0.31,15.38 -0.31,20.93z"/>
   <path class="fil14" d="M6349.59 547.68c-48.96,25.47 -196.43,40.01 -230.07,17.75 -8.79,-5.81 -10.79,-14.92 -10.81,-14.95 72.2,16.75 201.2,14.58 266.16,-29.67 0.22,5.18 5.39,-2.78 -2.54,10.76 -0.61,1.03 -5.22,5.95 -6.11,6.67 -8.11,6.62 -5.61,1.89 -16.63,9.44z"/>
   <path class="fil55" d="M5871.51 1178.06c13.53,-10.61 35.51,-33.96 47.31,-40.26 12.85,25.57 -181.16,136.02 -201.43,145.68 -40.13,19.13 -198.18,83.35 -233.44,73.94 14.45,-11.87 -1.62,-2.41 16.46,-6.88l99.7 -27c20.77,-7.19 37.5,-16.54 57.65,-22.65 18.45,-5.57 37.87,-15.7 54.34,-23.45 57.83,-27.17 107.32,-58.52 159.4,-99.38z"/>
   <path class="fil24" d="M6241.94 676.39l-6.36 5.77c-13.77,-18.38 -11.6,-29.14 -36.56,-53.4 -18.56,-18.03 -44.06,-31.87 -70.69,-36.4 -54.67,-9.29 -81.36,3.97 -121.3,30.38l-10.39 -6.02c32.3,-30.18 80.83,-46.61 131.26,-36.56 39.68,7.91 77.73,29.63 100.06,63.65 9.21,14.03 13.75,20.97 13.99,32.59z"/>
   <path class="fil56" d="M6485.06 459.13c-11.48,10.16 -26.93,21.38 -34.36,34.35 -14.45,2.73 -28.17,8.44 -14.96,-13.12 20.4,-5.11 61.69,-54.33 75.4,-79.08 23.15,-41.74 29.1,-74.37 30.48,-115.71l9.91 -3.11c8.07,19.23 0.12,58.45 -11.42,86.74 -17.48,42.87 -30.88,57.4 -55.05,89.93z"/>
   <path class="fil57" d="M5409.57 1323.45c-48.91,-4.35 -162.48,-34.47 -182.4,-84.53 6.16,-4.51 3.88,-0.2 3.78,-8.99l7.83 5.63c12.53,16.05 29.6,29.45 49.41,38.37l49.4 20.74c23.8,9.69 54.95,14.82 77.3,14.03l8.47 -24.62 11.55 0.02c-12.54,11.65 -9.32,22.54 -25.34,39.35z"/>
   <path class="fil58" d="M6088.35 240.22l17.69 -18.38c-17.28,-11 -31.53,-22.46 -48,-13.11 2.23,15.39 15.15,24.19 30.31,31.49zm32.17 -27.98l12.13 -12.01c-13.99,-8.48 -28.02,-15.55 -40.76,-15.04 0.37,7.43 2.83,10.71 8.11,16.32 14.46,15.34 19.84,10.05 20.52,10.73zm-31.8 40.75c-23.7,-11.36 -36.57,-23.32 -44.31,-41.34 9.24,-19.61 15.93,-20.71 35.14,-16.19l8.73 -24.45c21.07,4.48 41.5,14.15 60.09,27.38l-59.66 54.59z"/>
   <path class="fil20" d="M7256.3 939.75c-2,9.14 -0.43,5.63 -6.26,12.77 -40.58,-25.5 -58.56,-70.93 -91.27,-43.77l-19.35 16.96c-5.52,3.45 -4.73,2.74 -8.56,4.14 -12.08,-6.29 -2.75,-4.79 -12.34,-3 12.4,-22.77 42.41,-51.68 68.94,-43.43 20.73,6.44 60.17,41.89 68.84,56.32z"/>
   <path class="fil54" d="M6841.19 1110.23c-6.91,45.94 -2.64,52.97 -31.24,100.8 -63.57,75.4 -153.15,73.33 -165.7,52.63 12.9,-4.82 16.01,0.42 33.75,0.85 100.27,2.42 161.92,-92.4 148.85,-142.86l1.48 -14.63 10 -0.54 2.87 3.75z"/>
   <path class="fil17" d="M5986.8 800.71c-8.87,31.38 11.87,77.81 42.17,99.22 61.19,43.24 102.98,14.87 115.69,36.17l-30.08 2.83c-58.26,-3.6 -112.12,-27.66 -134.35,-84.33 -3.83,-9.77 -10.06,-47.61 -7.37,-63.62l8.22 5.72 5.72 4.01z"/>
   <path class="fil59" d="M5934.43 118.98c32.19,-33.58 158.58,-80.58 216.77,-98.66 24.53,-7.62 52.45,-23.56 78.58,-19.73l-148.71 51.99c-5.94,2.37 -9.7,2.78 -16.61,5.47l-109.08 54.69c-14.31,7.88 -7.08,5.83 -20.95,6.23z"/>
   <path class="fil60" d="M6517.11 1334.85c-3.62,7.26 -0.94,7.54 -6.52,3.89 -25.78,-26.21 -44.2,-76.14 -47.64,-105.19 -5.5,-46.48 2.15,-76.47 24.55,-128.29 6.29,-9.47 6.94,-16.04 17.88,-14.87 -28.28,66.46 -38.55,74.06 -33.06,137.07 3.5,40.04 18.01,70.22 44.79,107.4z"/>
   <path class="fil27" d="M7426.78 887.94c-79.58,-34.39 -55.73,16.75 -108.58,61.56 -11.62,9.86 -7.71,1.78 -8.47,9.55 -13.09,7.01 -25,5.48 -36.86,4.86l-22.83 -11.39c5.83,-7.13 4.27,-3.63 6.26,-12.77 69.99,55.59 79.13,-82.17 140.7,-75.43 19.62,9.9 36.22,13.87 40.73,27.25l-10.95 -3.63z"/>
   <path class="fil58" d="M6130.97 374.79c-13.2,1.28 -29.53,7.13 -40.08,16.38l25.2 14.03 14.87 -30.41zm-30.33 69.57l4.56 -20.62c2.09,-9.56 1.73,-3.24 0.68,-10.21l-27.24 -18.38c-22.58,4.76 -15.04,13.59 -37.59,6.34 18.17,-14.8 54.52,-26.63 77.43,-34.49 12.96,-4.45 11.29,-9.02 26.29,0.32 -2.64,9.48 -29.73,74.49 -44.13,77.03z"/>
   <path class="fil59" d="M5836.51 797.43c-62.02,-38.96 -85.64,-19.29 -136.57,-0.4 -29.71,11.02 -53.67,25.59 -82.29,41.57 -11.49,6.4 -51,31.68 -61.55,31.8l2.12 -7.81c12.15,-3.96 46.03,-25.2 62.13,-34.1 22.2,-12.27 41.31,-23.73 63.73,-32.62 41.45,-16.45 83.05,-49.93 148.14,-8.91 12.3,13.11 3.36,1.07 4.3,10.47z"/>
   <path class="fil61" d="M7201.86 1061.87c-7.12,16.82 -0.14,4.36 -9.17,4.98l-0.78 -14.83c-5.39,-17.15 -10.79,-17 -30.69,-30.89 -6.1,-4.27 -25.26,-16.74 -35.91,-24.97 -29.24,-22.62 -34.58,-40.87 -6.78,-69.3 9.59,-1.79 0.26,-3.3 12.34,3l-22.53 24.69c16.26,53.86 99.25,56.22 93.53,107.33z"/>
   <path class="fil45" d="M6354.76 373.45c20.54,0.61 31.79,-11.76 49.31,-0.35l-52.31 14.27 -3.22 29.8c-5.89,20.18 -0.19,4.03 -6.29,9.52 -6.57,-14.43 -3.29,-22.15 0.79,-36.79 -22.63,-2.45 -48.83,12.84 -60.79,0.15l57.79 -12.62 6.15 -41.13c12.69,13.72 8.63,-4.69 7.89,20.05 -0.25,8.53 -3.02,4.35 0.67,17.1z"/>
   <path class="fil62" d="M6571.65 1086.84c11.75,-26.93 29.06,-45.58 52.62,-56.74 17.17,7.89 2.19,-0.11 5.96,8.31 -23.55,16.83 -46.05,23.07 -52.97,66.66 -7.09,44.67 15.97,50.55 15.21,79.13 -26.8,-24.9 -29.38,-57.59 -20.83,-97.36z"/>
   <path class="fil45" d="M6936.73 424.85l-4.27 8.49c-26.3,-20.37 -95.95,-72.36 -109.23,-95.5 9.34,-4.37 -0.51,-2.99 12.15,1.3l101.35 85.71z"/>
   <path class="fil62" d="M6175.2 648.7c-17.93,3.95 -9.25,-9.36 -40.38,-20.26 -25.7,-9 -56.63,-3.38 -78.76,6.63 -43.99,19.89 -9.46,18.44 -36.33,15.46 23.03,-31.73 124.96,-60.48 155.47,-1.84z"/>
   <path class="fil14" d="M6710.75 1205.97c4.23,-8.13 1.63,-4.82 9.4,-9.54 17.42,-10.61 29.16,-15.15 42.19,-41.65 15.2,-30.92 6.78,-51.36 9.69,-75.16 35.31,33.69 -18.64,133.83 -61.28,126.35z"/>
   <path class="fil58" d="M6338.88 189.99c16,0.18 30.16,-6.12 45.08,0.32 -11.77,10.75 -26.8,8.13 -41.35,11.37 -24.21,5.39 -21.9,23.09 -41.16,26.11 -0.84,-7.08 -11.3,4.7 4.28,-13.79 37.54,-44.56 11.2,-21.15 24.63,-54.91 13.8,12.76 3.61,12.81 8.52,30.9z"/>
   <path class="fil63" d="M6241.11 732.5l4.1 -14.38c41.6,45.5 38.89,121.07 9.38,147.08l10.01 -37.79c7.62,-30.1 4.13,-61.4 -11.78,-86.45 -8.67,-13.67 -9.58,-8.58 -11.71,-8.46z"/>
   <path class="fil64" d="M6071.25 276.37c13.11,-12.46 10.16,-1.92 30.83,-5.67 62.17,-11.32 60.69,-57.99 75.72,-49.93 -19.78,47.05 -63.87,70.34 -106.55,55.6z"/>
   <path class="fil58" d="M6421.13 193.19c-3.71,34.39 -30.13,88.31 -65.16,79.38 10.15,-14.41 25.44,-12.94 40.38,-35.09 16.12,-23.93 9.19,-49.05 20.43,-54.88 4.2,5.61 3.2,-2.29 4.36,10.6z"/>
   <path class="fil58" d="M6182.81 381.87c-21.72,-9.18 -17.96,-26.6 -52.14,-35.1 -20.99,-5.22 -37.36,5.57 -53.1,-3.6 25.89,-20.23 103.78,-2.09 105.23,38.7z"/>
   <path class="fil43" d="M7348.41 1152.65c-30.73,-23.01 -64.99,-3.17 -83.79,22.35 -3.78,2 -0.22,-2.92 -9.03,5.87 -3.14,3.14 -5.54,7.46 -7.98,10.96 -6.75,-7.33 -4.55,-0.28 -2.87,-9.87 24.34,-28.7 70.61,-70.7 108.09,-36.77l-4.43 7.46z"/>
   <path class="fil54" d="M5827.89 915.59c-35.91,-18.6 -77.12,-7.49 -96.57,8.18l-9.82 -7.82c7.9,-4.82 41.35,-17.77 52.28,-19.5 19.19,-3.04 37.62,-0.33 58.93,10.36l-4.82 8.78z"/>
   <path class="fil65" d="M6394.08 1216.75l-2.88 15.16c-23.1,-10.36 -27.72,-21.23 -48.76,-19.69 0.35,-9.4 3.4,-3.69 -4.88,-11.08 -4.45,-3.97 -7.97,-4.16 -12.75,-6.2 5.32,-3.18 -1.42,-5.19 14.16,-4.83 6.42,0.16 9.5,1.81 16.73,5.02 13.34,5.94 27.69,15.37 38.37,21.61z"/>
   <path class="fil11" d="M6088.35 240.22c-15.15,-7.3 -28.08,-16.09 -30.31,-31.49 16.47,-9.35 30.72,2.11 48,13.11l-17.69 18.38z"/>
   <path class="fil58" d="M6015.3 203.93c14.48,-32.8 49.96,-60.03 76.21,-53.54 -13.54,17.06 -27.95,5.41 -54.64,37.12 -13.85,16.45 -5.08,17.25 -21.57,16.41z"/>
   <path class="fil59" d="M6266.64 410.02l-4.72 -27.9c8.87,-17.56 14.16,-32.72 29.57,-45.65 13.34,-11.2 28.03,-18.35 41.24,-18.4 -9.07,13.39 -78.75,30.82 -57.24,85.93 -7.86,14.61 -1.29,5.09 -8.85,6.02z"/>
   <path class="fil44" d="M6302.28 267.69c-10.2,9.09 -32.77,-17.56 -37.71,-24.43 -11.75,-16.33 -13.99,-38.59 -16.26,-43.22l9.21 -18.39c13.56,29.89 -19.39,33.54 44.76,86.03z"/>
   <path class="fil51" d="M6354.88 458.44l-6.02 -5.57c17.04,-3.78 34.41,-7.33 50.84,-25.44 17.5,-19.31 22.94,-46.47 17.83,-63.22l7.73 -1.18c0.72,20.61 1.81,41.62 -16.22,64.45 -15.73,19.93 -34.36,24.56 -54.16,30.96z"/>
   <path class="fil11" d="M6120.51 212.24c-0.68,-0.68 -6.06,4.62 -20.52,-10.73 -5.28,-5.61 -7.74,-8.89 -8.11,-16.32 12.74,-0.51 26.77,6.56 40.76,15.04l-12.13 12.01z"/>
   <path class="fil17" d="M6116.1 405.2l-25.2 -14.03c10.55,-9.25 26.88,-15.1 40.08,-16.38l-14.87 30.41z"/>
  </g>
  <path class="fil66" d="M2473.42 2390.42c-145.66,0 -259.59,-37.4 -341.75,-112.23 -82.17,-74.82 -123.26,-178.8 -123.26,-311.91 0,-89.97 16.58,-172.37 49.72,-247.19 33.16,-74.82 79.38,-140.01 138.67,-195.54 59.29,-55.54 129.32,-98.47 210.1,-128.76 80.77,-30.3 168.77,-45.44 264.01,-45.44 89.64,0 161.08,15.6 214.3,46.81 53.22,31.22 79.83,73.91 79.83,128.07 0,43.16 -15.63,78.73 -46.92,106.73 -31.27,28 -71.2,42 -119.75,42 -45.75,0 -88.47,-12.17 -128.16,-36.49 -39.69,-24.33 -71.2,-59.44 -94.54,-105.34 -49.48,17.44 -94.07,48.19 -133.75,92.27 -39.69,44.07 -70.97,96.16 -93.85,156.29 -22.88,60.14 -34.32,124.17 -34.32,192.11 0,83.55 15.4,148.73 46.22,195.55 30.81,46.82 73.77,70.23 128.86,70.23 38.28,0 72.37,-9.41 102.25,-28.23 29.87,-18.82 54.16,-44.07 72.84,-75.73 18.67,-31.68 28.94,-67.25 30.8,-106.73 22.42,0 39.69,7.12 51.84,21.35 12.14,14.23 18.2,36.03 18.2,65.41 0,51.41 -13.08,98 -39.22,139.77 -26.14,41.78 -61.16,75.05 -105.05,99.85 -43.88,24.78 -92.9,37.17 -147.06,37.17zm263.32 213.45c-59.77,0 -102.48,-13.08 -128.16,-39.25 -25.67,-26.16 -38.51,-64.04 -38.51,-113.61 0,-13.78 1.63,-31.68 4.9,-53.71 3.27,-22.04 7.71,-46.82 13.31,-74.36l161.08 -234.1 -54.63 -61.98 -109.24 -103.28c42.02,-26.62 87.54,-48.89 136.56,-66.79 49.02,-17.9 95.94,-26.85 140.76,-26.85 40.16,0 67.93,7.34 83.34,22.04 15.41,14.69 23.12,38.09 23.12,70.23 0,11.94 -3.74,32.13 -11.21,60.59 -7.46,28.46 -16.57,61.51 -27.31,99.15 -10.74,37.64 -21.48,77.35 -32.21,119.12 -10.74,41.78 -19.84,82.63 -27.32,122.57 -7.46,39.93 -11.2,75.96 -11.2,108.1 0,24.78 3.5,46.82 10.51,66.1 7,19.28 17.97,34.43 32.91,45.44 -26.14,20.19 -53.45,35.34 -81.93,45.44 -28.48,10.1 -56.73,15.14 -84.74,15.14zm582.83 -220.34c-52.3,0 -98.29,-13.31 -137.97,-39.93 -39.68,-26.62 -70.27,-64.26 -91.75,-112.93 -21.47,-48.66 -32.21,-105.57 -32.21,-170.76 0,-79.88 13.55,-152.64 40.62,-218.27 27.08,-65.64 65.36,-122.34 114.84,-170.08 49.5,-47.73 108.33,-84.45 176.48,-110.17 68.17,-25.7 143.8,-38.55 226.91,-38.55 39.21,0 76.1,3.67 110.65,11.01 5.6,11.94 9.81,28 12.6,48.2 2.81,20.2 4.22,42.23 4.22,66.1 -56.03,0 -108.78,9.41 -158.28,28.23 -49.49,18.82 -92.91,44.75 -130.26,77.8 -37.35,33.06 -66.76,71.15 -88.23,114.3 -21.48,43.15 -32.23,89.05 -32.23,137.71 0,44.98 9.58,79.64 28.72,103.96 19.14,24.34 45.98,36.49 80.53,36.49 69.11,0 124.19,-40.39 165.27,-121.19 41.09,-80.79 70.51,-206.56 88.25,-377.32 25.2,-31.22 52.76,-54.17 82.64,-68.86 29.88,-14.69 63.5,-22.03 100.84,-22.03 32.69,0 57.9,9.41 75.64,28.23 17.74,18.82 26.61,45.67 26.61,80.56 0,23.87 -4.44,56.23 -13.31,97.08 -8.87,40.86 -19.14,85.84 -30.82,134.95 -11.67,49.12 -21.95,99.16 -30.82,150.11 -8.86,50.95 -13.3,98.46 -13.3,142.53 0,59.68 14.47,101.45 43.42,125.32 -28.01,22.03 -57.19,38.78 -87.54,50.26 -30.34,11.48 -61.39,17.21 -93.15,17.21 -47.61,0 -84.26,-13.54 -109.95,-40.62 -25.67,-27.08 -38.52,-64.95 -38.52,-113.61 0,-7.34 0.47,-15.14 1.41,-23.41 0.93,-8.26 1.87,-16.98 2.8,-26.16l-14 -6.89c-26.15,66.1 -64.21,117.74 -114.15,154.92 -49.96,37.18 -105.28,55.77 -165.97,55.77zm944.17 0c-58.83,0 -100.85,-14.69 -126.05,-44.07 -25.21,-29.38 -37.82,-71.61 -37.82,-126.69 0,-15.6 1.86,-37.87 5.6,-66.79 3.74,-28.92 8.63,-61.97 14.72,-99.15 6.06,-37.18 13.07,-75.74 21,-115.67 7.93,-39.94 15.88,-78.96 23.82,-117.05 7.93,-38.1 15.63,-72.76 23.11,-103.97l-72.84 -110.17c38.29,-21.12 79.6,-39.25 123.96,-54.39 44.35,-15.14 89.4,-22.72 135.15,-22.72 39.22,0 68.17,9.41 86.84,28.23 18.68,18.81 28.01,44.3 28.01,76.42 0,23.88 -3.27,48.66 -9.8,74.36 -6.54,25.7 -14.02,47.74 -22.42,66.1l14.02 6.88c55.09,-92.73 112.99,-157.91 173.67,-195.55 60.69,-37.63 125.12,-56.45 193.28,-56.45 49.49,0 90.11,12.16 121.86,36.49 31.76,24.33 47.62,63.58 47.62,117.74 0,12.85 -1.17,26.85 -3.51,42 -2.34,15.14 -5.82,31.45 -10.5,48.89l14.01 6.88c55.09,-92.73 112.99,-157.91 173.68,-195.55 60.7,-37.63 125.12,-56.45 193.28,-56.45 56.96,0 99.45,13.54 127.46,40.62 28.01,27.08 42.02,69.09 42.02,126 0,36.72 -4.21,75.51 -12.61,116.37 -8.41,40.85 -17.98,82.85 -28.72,126 -10.73,43.15 -20.3,86.29 -28.7,129.45 -8.41,43.15 -12.61,86.29 -12.61,129.44 0,27.54 2.57,52.11 7.7,73.68 5.13,21.58 12.38,38.79 21.71,51.65 -49.49,44.98 -100.84,67.47 -154.07,67.47 -58.82,0 -100.85,-13.54 -126.05,-40.62 -25.2,-27.08 -37.82,-65.87 -37.82,-116.37 0,-42.23 4.21,-83.31 12.62,-123.25 8.4,-39.94 18.2,-78.26 29.41,-114.98 11.2,-36.72 21,-70.93 29.41,-102.6 8.4,-31.68 12.61,-59.91 12.61,-84.69 0,-19.28 -3.51,-34.43 -10.51,-45.44 -7,-11.02 -19.38,-16.52 -37.11,-16.52 -25.21,0 -53.93,11.02 -86.14,33.05 -32.21,22.04 -63.5,53.02 -93.84,92.96 -30.35,39.94 -55.33,87.44 -74.93,142.53 -19.61,55.08 -29.42,116.14 -29.42,183.15 0,27.54 2.57,52.11 7.7,73.68 5.13,21.58 12.38,38.79 21.72,51.65 -49.49,44.98 -100.86,67.47 -154.07,67.47 -58.82,0 -100.85,-13.54 -126.06,-40.62 -25.2,-27.08 -37.81,-65.87 -37.81,-116.37 0,-42.23 4.2,-83.31 12.61,-123.25 8.4,-39.94 18.21,-78.26 29.41,-114.98 11.2,-36.72 21.01,-70.93 29.41,-102.6 8.4,-31.68 12.61,-59.91 12.61,-84.69 0,-19.28 -3.51,-34.43 -10.5,-45.44 -7,-11.02 -19.38,-16.52 -37.12,-16.52 -25.2,0 -53.93,11.02 -86.14,33.05 -32.21,22.04 -63.5,53.02 -93.85,92.96 -30.34,39.94 -55.32,87.44 -74.93,142.53 -19.6,55.08 -29.4,116.14 -29.4,183.15 0,27.54 2.56,52.11 7.7,73.68 5.12,21.58 12.37,38.79 21.7,51.65 -49.48,44.98 -100.84,67.47 -154.06,67.47zm1750.95 0c-115.78,0 -206.59,-30.29 -272.41,-90.89 -65.83,-60.59 -98.75,-145.05 -98.75,-253.38 0,-74.36 13.78,-142.99 41.32,-205.87 27.54,-62.9 66.06,-117.52 115.55,-163.87 49.49,-46.36 107.85,-82.4 175.08,-108.11 67.22,-25.7 140.53,-38.55 219.9,-38.55 85.9,0 152.44,17.44 199.59,52.33 47.15,34.88 70.74,84 70.74,147.35 0,65.18 -23.12,121.18 -69.34,168 -46.22,46.82 -111.82,82.17 -196.78,106.04 -84.97,23.87 -186.75,34.88 -305.35,33.05l18.22 -101.91c99.91,-5.5 176.7,-23.64 230.4,-54.39 53.7,-30.75 80.54,-71.38 80.54,-121.87 0,-20.2 -7,-36.49 -21.01,-48.89 -14.01,-12.4 -32.22,-18.59 -54.62,-18.59 -29.89,0 -58.36,9.64 -85.44,28.92 -27.08,19.28 -51.35,45.9 -72.84,79.87 -21.47,33.97 -38.28,72.3 -50.41,114.98 -12.15,42.7 -18.21,87.45 -18.21,134.27 0,62.43 10.96,111.31 32.91,146.66 21.95,35.34 52.53,53.02 91.75,53.02 47.62,0 86.84,-17.21 117.65,-51.65 30.81,-34.43 47.15,-79.64 49.02,-135.64 56.02,0 98.75,10.1 128.16,30.3 29.41,20.2 44.13,49.58 44.13,88.13 0,39.48 -16.35,75.05 -49.03,106.73 -32.69,31.67 -77.03,56.91 -133.06,75.73 -56.03,18.82 -118.59,28.23 -187.69,28.23z"/>
  <path class="fil66" d="M788.56 1133.67c-59.77,0 -103.19,-14.69 -130.26,-44.07 -27.08,-29.38 -40.63,-76.66 -40.63,-141.85 0,-20.19 1.17,-44.07 3.51,-71.61 2.34,-27.54 6.76,-63.35 13.31,-107.41 6.53,-44.07 15.64,-100.3 27.31,-168.69 11.67,-68.4 26.38,-153.1 44.13,-254.08l-74.23 -147.34c52.29,-33.06 102.72,-58.07 151.27,-75.05 48.55,-16.98 94.3,-25.47 137.26,-25.47 71.9,0 107.85,43.15 107.85,129.44 0,13.78 -1.88,34.21 -5.6,61.29 -3.74,27.08 -8.87,58.52 -15.41,94.32 -6.53,35.8 -13.53,74.13 -21,114.99 -7.48,40.85 -15.18,81.71 -23.12,122.56 -7.93,40.86 -15.16,79.65 -21.71,116.37 -6.53,36.72 -11.67,69.08 -15.4,97.08 -3.74,28 -5.6,49.8 -5.6,65.41 0,42.23 3.27,76.19 9.81,101.91 6.53,25.7 17.27,49.11 32.21,70.23 -53.23,41.31 -111.12,61.97 -173.67,61.97zm-617.67 0c-59.77,0 -103.19,-14.69 -130.27,-44.07 -27.08,-29.38 -40.62,-76.66 -40.62,-141.85 0,-20.19 1.17,-44.07 3.51,-71.61 2.33,-27.54 6.76,-63.35 13.3,-107.41 6.53,-44.07 15.64,-100.3 27.31,-168.69 11.68,-68.4 26.38,-153.1 44.12,-254.08l-74.22 -147.34c52.3,-33.06 102.71,-58.07 151.27,-75.05 48.56,-16.98 94.31,-25.47 137.26,-25.47 71.91,0 107.85,43.15 107.85,129.44 0,13.78 -1.87,34.21 -5.6,61.29 -3.73,27.08 -8.87,58.52 -15.4,94.32 -6.53,35.8 -13.55,74.13 -21.01,114.99 -7.47,40.85 -15.17,81.71 -23.11,122.56 -7.93,40.86 -15.18,79.65 -21.72,116.37 -6.53,36.72 -11.67,69.08 -15.4,97.08 -3.74,28 -5.6,49.8 -5.6,65.41 0,42.23 3.28,76.19 9.8,101.91 6.55,25.7 17.28,49.11 32.23,70.23 -53.23,41.31 -111.12,61.97 -173.67,61.97zm71.43 -403.49l30.81 -163.87 484.62 0 -28.01 163.87 -487.42 0zm1122.06 402.11c-52.3,0 -98.28,-13.31 -137.96,-39.93 -39.68,-26.62 -70.27,-64.26 -91.75,-112.93 -21.47,-48.66 -32.21,-105.57 -32.21,-170.76 0,-79.88 13.55,-152.64 40.62,-218.27 27.08,-65.64 65.36,-122.34 114.84,-170.08 49.5,-47.73 108.33,-84.45 176.48,-110.17 68.17,-25.7 143.8,-38.55 226.91,-38.55 39.21,0 76.1,3.67 110.65,11.01 5.6,11.94 9.81,28 12.6,48.2 2.81,20.2 4.21,42.23 4.21,66.1 -56.02,0 -108.78,9.41 -158.27,28.23 -49.49,18.82 -92.91,44.75 -130.26,77.8 -37.35,33.06 -66.76,71.15 -88.23,114.3 -21.49,43.15 -32.23,89.05 -32.23,137.71 0,44.98 9.57,79.64 28.72,103.96 19.14,24.34 45.98,36.49 80.53,36.49 69.1,0 124.19,-40.39 165.27,-121.19 41.09,-80.79 70.51,-206.56 88.25,-377.32 25.2,-31.22 52.75,-54.17 82.64,-68.86 29.88,-14.69 63.5,-22.03 100.84,-22.03 32.69,0 57.9,9.41 75.64,28.23 17.73,18.82 26.6,45.67 26.6,80.56 0,23.87 -4.43,56.23 -13.3,97.08 -8.87,40.86 -19.14,85.84 -30.82,134.95 -11.67,49.12 -21.95,99.16 -30.82,150.11 -8.87,50.95 -13.3,98.46 -13.3,142.53 0,59.68 14.47,101.45 43.42,125.32 -28.01,22.03 -57.19,38.78 -87.54,50.26 -30.34,11.48 -61.4,17.21 -93.15,17.21 -47.61,0 -84.26,-13.54 -109.95,-40.62 -25.67,-27.08 -38.52,-64.95 -38.52,-113.61 0,-7.34 0.47,-15.14 1.41,-23.41 0.93,-8.26 1.87,-16.98 2.8,-26.16l-14 -6.89c-26.15,66.1 -64.21,117.74 -114.15,154.92 -49.96,37.18 -105.28,55.77 -165.98,55.77zm1158.48 -34.43c-39.22,0 -76.1,-3.68 -110.65,-11.02 -5.6,-13.77 -9.8,-30.52 -12.61,-50.26 -2.8,-19.74 -4.2,-41.09 -4.2,-64.04 78.43,0 148.47,-14.24 210.09,-42.7 61.63,-28.45 110.19,-67.01 145.67,-115.67 35.47,-48.66 53.23,-103.74 53.23,-165.25 0,-44.98 -9.57,-79.64 -28.71,-103.96 -19.14,-24.34 -45.99,-36.49 -80.55,-36.49 -34.55,0 -69.32,18.59 -104.33,55.77 -35.02,37.17 -66.53,88.36 -94.54,153.54 -28.01,65.18 -50.43,139.54 -67.23,223.08l-2.81 -501.26 114.85 42.69c27.08,-66.09 65.13,-117.74 114.15,-154.92 49.02,-37.17 103.87,-55.76 164.57,-55.76 53.23,0 99.44,13.31 138.66,39.93 39.22,26.62 69.56,64.26 91.04,112.93 21.49,48.66 32.23,105.57 32.23,170.76 0,74.36 -13.55,142.31 -40.63,203.81 -27.07,61.51 -65.36,114.52 -114.85,159.05 -49.48,44.52 -108.31,78.96 -176.48,103.29 -68.15,24.33 -143.79,36.49 -226.9,36.49zm-240.91 275.42c-55.09,0 -95.24,-13.78 -120.45,-41.32 -25.21,-27.54 -37.82,-70.69 -37.82,-129.44 0,-16.53 2.81,-47.74 8.4,-93.65 5.59,-45.9 13.55,-101.68 23.81,-167.32 10.27,-65.64 22.18,-137.94 35.72,-216.89 13.54,-78.95 27.78,-159.75 42.72,-242.37l-78.44 -110.16c43.9,-32.14 88.95,-56.92 135.16,-74.36 46.22,-17.44 88.47,-26.16 126.76,-26.16 42.96,0 73.53,7.57 91.74,22.72 18.21,15.14 27.31,40.17 27.31,75.05 0,27.54 -4.2,62.43 -12.6,104.65 -8.4,42.24 -18.68,89.75 -30.82,142.54 -12.14,52.79 -24.51,109.02 -37.11,168.69 -12.62,59.68 -23.11,120.96 -31.52,183.84 -8.41,62.89 -12.61,125.54 -12.61,187.98 0,36.71 3.04,65.63 9.11,86.75 6.06,21.12 17.5,41.77 34.31,61.97 -23.34,20.2 -50.65,36.49 -81.93,48.89 -31.29,12.39 -61.87,18.59 -91.75,18.59zm1285.95 -275.42c-39.22,0 -76.1,-3.68 -110.66,-11.02 -5.6,-13.77 -9.8,-30.52 -12.61,-50.26 -2.79,-19.74 -4.2,-41.09 -4.2,-64.04 78.43,0 148.47,-14.24 210.1,-42.7 61.62,-28.45 110.18,-67.01 145.66,-115.67 35.47,-48.66 53.23,-103.74 53.23,-165.25 0,-44.98 -9.57,-79.64 -28.71,-103.96 -19.14,-24.34 -45.98,-36.49 -80.55,-36.49 -34.55,0 -69.32,18.59 -104.33,55.77 -35.02,37.17 -66.53,88.36 -94.54,153.54 -28.01,65.18 -50.43,139.54 -67.23,223.08l-2.81 -501.26 114.85 42.69c27.08,-66.09 65.13,-117.74 114.15,-154.92 49.02,-37.17 103.87,-55.76 164.57,-55.76 53.23,0 99.44,13.31 138.66,39.93 39.22,26.62 69.56,64.26 91.05,112.93 21.48,48.66 32.22,105.57 32.22,170.76 0,74.36 -13.55,142.31 -40.63,203.81 -27.07,61.51 -65.35,114.52 -114.85,159.05 -49.48,44.52 -108.31,78.96 -176.48,103.29 -68.15,24.33 -143.79,36.49 -226.89,36.49zm-240.92 275.42c-55.08,0 -95.24,-13.78 -120.45,-41.32 -25.21,-27.54 -37.82,-70.69 -37.82,-129.44 0,-16.53 2.81,-47.74 8.4,-93.65 5.6,-45.9 13.55,-101.68 23.81,-167.32 10.28,-65.64 22.19,-137.94 35.72,-216.89 13.54,-78.95 27.78,-159.75 42.72,-242.37l-78.44 -110.16c43.9,-32.14 88.95,-56.92 135.17,-74.36 46.21,-17.44 88.46,-26.16 126.75,-26.16 42.96,0 73.54,7.57 91.74,22.72 18.21,15.14 27.31,40.17 27.31,75.05 0,27.54 -4.2,62.43 -12.6,104.65 -8.4,42.24 -18.67,89.75 -30.82,142.54 -12.14,52.79 -24.51,109.02 -37.11,168.69 -12.62,59.68 -23.11,120.96 -31.52,183.84 -8.4,62.89 -12.61,125.54 -12.61,187.98 0,36.71 3.05,65.63 9.11,86.75 6.06,21.12 17.5,41.77 34.32,61.97 -23.35,20.2 -50.66,36.49 -81.94,48.89 -31.29,12.39 -61.86,18.59 -91.75,18.59zm984.8 0c-79.36,0 -139.83,-14.01 -181.38,-42.01 -41.56,-28 -62.33,-67.7 -62.33,-119.12 0,-27.54 7.23,-53.48 21.71,-77.8 14.48,-24.33 30.11,-42.46 46.92,-54.39 9.33,15.6 21.71,30.07 37.11,43.38 15.41,13.32 34.79,24.11 58.13,32.37 23.34,8.26 50.89,12.39 82.64,12.39 33.61,0 69.57,-7.57 107.84,-22.72 38.29,-15.15 77.04,-37.41 116.26,-66.79 39.22,-29.38 76.8,-65.87 112.76,-109.48 35.94,-43.61 67.92,-93.42 95.93,-149.41 28.01,-56 50.19,-118.21 66.53,-186.6 16.33,-68.4 24.52,-142.53 24.52,-222.4 0,-12.85 -0.7,-26.39 -2.1,-40.62 -1.41,-14.24 -3.04,-27.31 -4.92,-39.25 18.68,-17.44 42.73,-31.67 72.15,-42.69 29.4,-11.02 57.18,-16.52 83.34,-16.52 44.81,0 78.66,10.09 101.55,30.29 22.87,20.2 34.32,50.5 34.32,90.89 0,49.58 -8.17,107.87 -24.52,174.89 -16.34,67.02 -40.62,137.25 -72.84,210.7 -32.21,73.45 -71.67,145.51 -118.35,216.2 -46.69,70.7 -100.15,134.5 -160.37,191.42 -60.24,56.92 -126.76,102.37 -199.6,136.33 -72.84,33.98 -151.27,50.96 -235.31,50.96zm243.71 -241c-61.63,0 -109.95,-11.48 -144.96,-34.43 -35.01,-22.95 -60.93,-54.17 -77.74,-93.65 -16.8,-39.47 -27.3,-83.78 -31.51,-132.89 -4.21,-49.12 -6.3,-99.84 -6.3,-152.17 0,-52.34 -0.94,-103.52 -2.8,-153.55 -1.87,-50.03 -8.18,-95.47 -18.91,-136.33 -10.74,-40.85 -29.65,-73.68 -56.72,-98.46 49.48,-39.48 105.04,-59.21 166.67,-59.21 45.75,0 81.71,10.55 107.85,31.67 26.14,21.12 45.28,49.58 57.42,85.38 12.15,35.8 19.61,75.96 22.41,120.5 2.81,44.52 3.51,90.66 2.11,138.39 -1.41,47.74 -1.88,93.87 -1.41,138.4 0.47,44.52 4.21,84.69 11.21,120.5 7,35.8 19.84,64.26 38.52,85.38 18.67,21.11 46.22,31.67 82.64,31.67l-148.47 108.79z"/>
 </g>
</svg>
