<?xml version="1.0" encoding="UTF-8"?>
<!DOCTYPE svg PUBLIC "-//W3C//DTD SVG 1.1//EN" "http://www.w3.org/Graphics/SVG/1.1/DTD/svg11.dtd">
<!-- Creator: CorelDRAW -->
<svg xmlns="http://www.w3.org/2000/svg" xml:space="preserve" width="25.974mm" height="25.9336mm" version="1.1" style="shape-rendering:geometricPrecision; text-rendering:geometricPrecision; image-rendering:optimizeQuality; fill-rule:evenodd; clip-rule:evenodd"
viewBox="0 0 2633.04 2628.95"
 xmlns:xlink="http://www.w3.org/1999/xlink"
 xmlns:xodm="http://www.corel.com/coreldraw/odm/2003">
 <defs>
  <style type="text/css">
   <![CDATA[
    .fil7 {fill:#057ABB}
    .fil18 {fill:#0967AF}
    .fil31 {fill:#0AB4F1}
    .fil49 {fill:#0F134F}
    .fil12 {fill:#151748}
    .fil40 {fill:#161972}
    .fil36 {fill:#185506}
    .fil4 {fill:#27A1BB}
    .fil46 {fill:#289EBB}
    .fil20 {fill:#2D3292}
    .fil61 {fill:#2DA6C7}
    .fil34 {fill:#373949}
    .fil27 {fill:#392A69}
    .fil19 {fill:#3A1550}
    .fil22 {fill:#3B2543}
    .fil8 {fill:#3B76B7}
    .fil17 {fill:#449C15}
    .fil6 {fill:#45C1BE}
    .fil41 {fill:#4775B0}
    .fil33 {fill:#49B8B9}
    .fil13 {fill:#50B9F0}
    .fil42 {fill:#569653}
    .fil14 {fill:#57C8ED}
    .fil30 {fill:#5AC9F6}
    .fil63 {fill:#66C8F2}
    .fil47 {fill:#675823}
    .fil52 {fill:#6765A4}
    .fil65 {fill:#753289}
    .fil57 {fill:#758990}
    .fil15 {fill:#775094}
    .fil10 {fill:#9AD9F3}
    .fil38 {fill:#A31712}
    .fil0 {fill:#A75169}
    .fil26 {fill:#AE509A}
    .fil3 {fill:#CA3486}
    .fil5 {fill:#CDD554}
    .fil28 {fill:#D0526F}
    .fil53 {fill:#D66419}
    .fil9 {fill:#D7D955}
    .fil24 {fill:#D93785}
    .fil59 {fill:#D9E6EC}
    .fil37 {fill:#E3DB5C}
    .fil44 {fill:#E3DC99}
    .fil21 {fill:#E43784}
    .fil64 {fill:#E5A29D}
    .fil55 {fill:#E5E8EB}
    .fil29 {fill:#E62789}
    .fil48 {fill:#E7DB29}
    .fil51 {fill:#E8ECF4}
    .fil54 {fill:#EBF4F8}
    .fil62 {fill:#ED8E2D}
    .fil56 {fill:#EE6E53}
    .fil43 {fill:#EF7429}
    .fil60 {fill:#F42E30}
    .fil50 {fill:#F4B532}
    .fil39 {fill:#F55035}
    .fil45 {fill:#F5F6F8}
    .fil16 {fill:#F6A10C}
    .fil32 {fill:#F7710D}
    .fil58 {fill:#F9F4EC}
    .fil25 {fill:#FAED08}
    .fil23 {fill:#FAFCFA}
    .fil35 {fill:#FBFBFB}
    .fil11 {fill:#FD0D09}
    .fil1 {fill:#FE4934}
    .fil2 {fill:#FEFEFE}
   ]]>
  </style>
 </defs>
 <g id="Camada_x0020_1">
  <metadata id="CorelCorpID_0Corel-Layer"/>
  <g id="_1933893460816">
   <path class="fil0" d="M2254.72 2119.34l-18.12 -7.88c-27.32,43.49 -109.48,222.24 -129.97,237.62l12.29 -23 -236.88 -120.92c14.74,-32.65 44.92,-77.69 63.8,-112.61 78.38,-144.95 101.89,-221.39 162.8,-367.59l194.5 65.62 14.63 -28.42c-1.83,33.85 -122.1,273.89 -147.32,321.75l84.26 35.44z"/>
   <path class="fil1" d="M755.61 1069.71c-20.72,27.71 -77.28,71.64 -109.33,95 -39.51,28.8 -73.35,48.45 -115.45,69.85 -58.88,29.93 -196.54,81.53 -254.16,68.49l-11.72 -0.02 -8.6 24.98c-22.68,0.8 -54.29,-4.4 -78.44,-14.23l-26.82 -12.46c11.72,-21.98 86.13,-110.81 103.43,-120.24 92.39,-6.5 151.7,-24.28 232.98,-65.93 54.19,-27.79 158.59,-104 198.34,-172.33 1.19,10.29 11.35,17.31 17.22,26.86l38.47 69.31c5.74,11.17 11.83,18.74 14.07,30.74z"/>
   <path class="fil2" d="M2590.57 1278.41c-34.12,141.38 -85.7,274.6 -140.62,414.21 -27.75,70.51 -53.31,140.77 -84.29,211.88 -31.46,72.24 -74.73,146.73 -103.26,217.55l-7.67 -2.71 -84.26 -35.44c25.22,-47.86 145.49,-287.9 147.32,-321.75l48.47 -124.1 75.55 24.23c48.97,-90 111.76,-291.93 132.86,-388.92 7.95,-6.52 16.98,-11.41 15.91,5.05z"/>
   <path class="fil3" d="M1288.38 1140.4l-38.41 94.3c-10.84,-6.33 -25.4,-15.9 -38.94,-21.93 -7.34,-3.26 -10.46,-4.94 -16.98,-5.1 -15.8,-0.38 -8.96,1.67 -14.36,4.9 -22.17,13.25 -96.36,27.46 -135.07,29.38 -24.03,1.19 -49.42,-0.2 -73.98,-4.82 -37.13,-6.96 -54.01,-23.83 -83.15,-32.7 -17.64,-14.09 -33.99,-28.07 -44.97,-42.55 24.07,-8.72 33.7,-46.76 55.32,-55.79 10.34,-3.33 23.21,7.5 46.74,15.03 81.38,26.08 200.41,-1.72 251.31,-48.82l-59.7 -38.45 8.23 -10.67 16.72 17.15c77.83,47.52 61.76,44.13 127.23,100.06z"/>
   <path class="fil4" d="M33.04 1169.14c2.87,13.33 3.9,10.45 9.1,22.45 4.13,9.51 3.14,10.94 7.05,19.59 5.49,12.2 13.65,21.9 20.51,36.89 0.1,8.92 2.42,4.55 -3.83,9.12 -21.15,-19.25 -39.8,-65.36 -46.84,-92.57 -31.31,-120.94 -28.47,-208.79 42.96,-334.93 39.65,-70.03 95.95,-132.73 149.82,-188.26 36.95,-38.09 120.46,-135.07 158.7,-159.19l18.53 8.54c22.64,-14.66 56.41,-48.86 80.14,-69.59 23.25,-20.3 58.47,-55.05 80.66,-66.92l31.89 44.39c-14.64,18.24 -87.08,71.12 -111.47,91.77 -75.69,64.06 -142.63,128.43 -209.51,203.21 -21.61,24.19 -83.87,109.27 -100.02,122.12l-39.42 -43.14c-49.69,42.62 -88.75,143.06 -100.93,208.84 -13.05,70.53 -2.6,89.67 2.93,144.14 1.83,18.16 5.28,30.09 9.73,43.55z"/>
   <path class="fil5" d="M1605.69 2500.57c-10.86,0.4 -18.34,-14.3 -25.72,-26.62 -48.57,-81.04 -45.99,-184.07 -37.73,-277.65 7.93,-89.78 13.57,-166.37 26.29,-258 4.02,-29.01 11.23,-59.78 13.43,-88.48 2.55,-18.36 6.47,-60.34 16,-76.67l35.12 7.27c13.61,11.94 9.32,1.08 5.59,46.18 -1.38,16.63 -2.03,28.26 -3.59,45.44 -15.05,165.57 -25.6,373.25 -27.57,539.04 -0.29,25.51 1.91,66.32 -1.8,89.5z"/>
   <path class="fil6" d="M1969.63 596.24l-68.2 91.65 -325.53 -242.86 61.9 -87.22 156.23 123.92c25.72,17.99 55.66,41.34 82.64,58.49 26.74,17 72.5,39.66 92.96,56.02z"/>
   <path class="fil7" d="M779.07 1105.42c-65.03,76.09 -172.81,142.58 -247.39,178.27 -42.64,20.41 -87.21,37.33 -135.41,48 -31.73,7.03 -108.36,23.33 -145.32,11.27 16.26,-17.06 13,-28.11 25.72,-39.93 57.62,13.05 195.28,-38.56 254.16,-68.49 42.1,-21.4 75.94,-41.05 115.45,-69.85 32.05,-23.36 88.61,-67.29 109.33,-95 12.76,9.93 18.18,21.7 23.46,35.71z"/>
   <path class="fil8" d="M1974.59 2523.05c-36.07,45.59 -176.07,92.54 -237.8,63.74l-6.48 -0.09c-19.42,-1.39 -33.96,-9.4 -53.37,-20.54 -8.27,-4.74 -45.75,-31.85 -49.87,-37.58 4.45,-29.46 -9.37,-103.68 5.49,-120.46l1.56 6.48c0.22,0.86 0.53,2.23 0.78,3.17 9.07,34.25 17.35,18.98 17.38,18.96 6.22,24.71 6.75,37.53 42.98,64.91 75.61,57.16 183.01,16.33 227.88,-25.15 18.61,11.15 36.06,31.87 51.44,46.56z"/>
   <path class="fil9" d="M2192.46 773.1c-19.23,14.23 -26.92,-1.06 -61.92,13.06 8.26,8.16 18.88,2.19 26.69,1.34 13.7,-1.51 25.04,-2.78 39.42,1.34l0.79 20.41c-83.34,-0.27 -109.29,-0.62 -168.92,26.95 -52.07,24.07 -99.24,62.57 -137.71,125.27l-27.71 -13.52c-55.13,101.24 -15.54,286.11 62.02,329.81 -0.69,8.96 3.61,8.86 -5.31,6.27 -68.1,-56.68 -97.74,-165.15 -86.95,-251.69 3.82,-30.57 10.49,-44.82 18.42,-75.36 10.28,-39.57 11.2,-36.67 39.75,-69.78 32,-37.15 76.34,-70.81 111.54,-87.8 -184.17,59.07 -173.41,167.8 -282.34,199.37 -12.86,3.73 -96.46,20.93 -109.29,1.41 12.3,-4.61 58.91,0.53 79.97,-4.52 122.18,-29.29 109.52,-89.06 200.7,-152.88 68.87,-48.21 142.28,-65.1 224.1,-75.84 14.7,-1.94 71.99,-9.63 76.74,6.16z"/>
   <path class="fil10" d="M1398.17 517.01l-21.81 -18.26 -34.07 -32.85c24.53,-33.01 38.13,-47.76 55.87,-91.26 11.71,-28.71 19.78,-68.51 11.59,-88.02 12.69,-23.12 -24.59,-83.73 -35.13,-100.67 -24.2,-38.92 -47.88,-54.44 -89.36,-83.82l33.73 10.11c11.15,5.71 21.25,11.98 31.44,19.22 86.18,61.28 133.13,157.76 114.29,260.91 -10.83,59.27 -33.1,81.37 -66.54,124.65z"/>
   <path class="fil11" d="M2138.3 651.87c30.37,16.83 47.79,17.94 74.79,28.83 24.41,9.85 48.2,19.9 71.73,28.33 46.48,16.64 112.01,49.87 154.42,75.58l-10.24 -3.72c2.09,14.34 -3.43,2.06 2.79,13.23 -120.14,-60.39 -231.39,-94.68 -343.49,-147.88 -60.03,-28.5 -29.76,-9.04 -57.1,-18.54 -16.29,-5.67 -44.14,-23.07 -61.56,-31.47 -20.46,-16.36 -66.22,-39.02 -92.96,-56.02 -26.98,-17.15 -56.92,-40.5 -82.64,-58.49l-156.23 -123.92c-7.78,-11.53 -10.86,-12.76 -21.28,-22.87 -13.31,-12.91 -13.14,-9.51 -7.7,-25.69l8.38 -8.11c150.84,142.16 308.39,261.57 521.09,350.73z"/>
   <path class="fil12" d="M1631.31 2388.79c1.65,4.96 2.3,2.81 2.52,10.05 0.21,6.79 -0.13,3.53 -1.27,9.3 -14.86,16.78 -1.04,91 -5.49,120.46 -13.53,-10.5 -15.05,-13.41 -21.39,-28.02 3.71,-23.18 1.51,-64 1.8,-89.5 1.98,-165.78 12.52,-373.47 27.57,-539.04 1.56,-17.17 2.21,-28.81 3.59,-45.44 3.73,-45.09 8.03,-34.23 -5.59,-46.18 7.7,-6.39 6.68,-53.51 7.33,-69.21l-0.14 -75.15c-1.31,-39.72 -5.33,-70.96 -17.9,-107.14 -10.1,-29.03 -11.78,-18.42 -8.52,-29.04l21.26 0.79c-7.7,3.81 -2.73,9.29 -4.91,0.35 15.15,13.93 14.54,30.75 17.88,51.37 1.21,7.45 0.44,2.62 1.57,8.91l1.05 5.8c0.26,1.41 1.57,7.55 2.37,11.77 1.54,8.07 2.76,17.4 3.72,27.38 3.52,36.69 3,71.92 1.53,110.11l-19.75 254.8c0.79,8.6 5.39,16.54 5.73,26.85l-15.41 336.41c-0.38,10.39 -1.04,17.26 -1.17,28.59l3.59 25.77z"/>
   <path class="fil12" d="M536.72 751.52c-14.11,16.85 -45.23,29.26 -60.6,38.26l-125.75 76.58c-21.75,14.34 -39.79,28.69 -61.1,42.62 -67.11,43.83 -186.92,126.33 -222.83,227.17 2.19,-34.04 125.66,-129.13 156.09,-151.62l64.41 -43.43c12.35,-8.01 10.61,-9.68 23.03,-16.59l44.8 -25.85c14.21,-7.3 29.6,-22.15 47.02,-23.34l-2.15 7.93c-14.58,14.42 -94.15,58.06 -126.7,80.31l-39 25.09c-243.3,178.03 -158.07,224.28 -156.31,265.15l-7.95 -5.72c-6.85,-14.99 -15.01,-24.69 -20.51,-36.89 -3.9,-8.65 -2.92,-10.08 -7.05,-19.59 -5.2,-12 -6.23,-9.12 -9.1,-22.45 11.95,-7.15 4.99,-15.31 14.7,-39.02 43.7,-106.71 127.42,-160.14 211.94,-223.69 39.38,-29.61 148.41,-96.01 202.66,-129.49l67.52 -35.17 -3.26 6.08 10.12 3.67z"/>
   <path class="fil13" d="M2619.09 966.2c20.89,75.76 16.36,155.94 -0.75,237.88 -3,14.33 -5.57,26.7 -9,41.26 -3.77,15.98 -4.08,33.57 -18.77,33.07 1.07,-16.46 -7.96,-11.57 -15.91,-5.05l-16.77 -9.46 26.29 -29.24c-15.81,-4.92 -8.3,-4.54 -20.17,2.9l10.89 -66.59c14.4,-12.78 12.33,-136.42 10.22,-161 -4.72,-55.01 -25.31,-103.48 -56.05,-144.97l14.22 -19.37c36.17,28.17 49.43,104.59 75.81,120.57z"/>
   <path class="fil14" d="M2329.73 1370.69c-15.59,0.01 -35.12,6.42 -50.3,14.76 -10.72,-8.24 -4.5,-1.65 -11.32,-10.42l-3.04 -8.77 -2.17 -12.11c74.67,-25.17 104.9,-25.94 174.87,-98.08 27.83,-28.69 50.65,-68.5 65.36,-108.92 3.86,-10.58 6.89,-20.27 9.31,-30.8 9.05,-39.53 20.73,-21.88 9.62,-72.43 -47.78,-217.28 -294.81,-271.66 -325.39,-255.09 -14.38,-4.12 -25.73,-2.85 -39.42,-1.34 -7.82,0.85 -18.43,6.82 -26.69,-1.34 34.99,-14.12 42.69,1.18 61.92,-13.06 22.51,17.25 139.63,-2.95 253.54,116.88 54.98,57.84 76.65,112.82 86.21,185.22 3.29,24.93 1.29,9.11 16.59,25.55 -32.72,145.18 -119.93,223.18 -219.08,269.95z"/>
   <path class="fil15" d="M1605.69 2500.57c6.34,14.61 7.86,17.52 21.39,28.02 4.12,5.73 41.59,32.83 49.87,37.58 19.41,11.14 33.95,19.15 53.37,20.54l6.48 0.09 -11.39 23.93 -18.34 -6.43c-42.87,-16.83 -60.25,-30.29 -95.19,-55.6 -9.59,-9.88 -20.89,-21.03 -29.28,-31.37 -11.27,-13.93 -16.42,-25.2 -27.77,-37.91 -0.22,-11.11 -12.92,-32.98 -20.03,-42.11 -1.15,-19.24 -10.11,-44.65 -15.01,-69.45 -10.23,-51.7 -6.93,-179.69 5.17,-222.58 7.7,-27.28 8.94,9.06 16.63,-74.78 7.08,-77.22 17.27,-125.99 24.5,-191.08 1.98,-17.78 -2.18,-18.46 1.16,-36.03l14.72 6.44c-2.2,28.7 -9.41,59.46 -13.43,88.48 -12.71,91.63 -18.36,168.23 -26.29,258 -8.26,93.58 -10.84,196.61 37.73,277.65 7.38,12.32 14.86,27.02 25.72,26.62z"/>
   <path class="fil16" d="M1193.96 192.79c-4.99,-18.36 5.35,-18.41 -8.65,-31.35 -13.62,34.26 13.11,10.5 -24.99,55.72 -15.8,18.75 -5.19,6.8 -4.34,13.99 19.54,-3.07 17.2,-21.02 41.77,-26.5 14.76,-3.28 30.02,-0.63 41.96,-11.54 -15.15,-6.54 -29.51,-0.14 -45.75,-0.32zm79.04 -7.5c-11.4,5.92 -4.37,31.42 -20.73,55.69 -15.16,22.48 -30.68,20.99 -40.97,35.61 -13.1,2.57 -45.26,6.95 -54.48,-4.96 -65.1,-53.27 -31.67,-56.97 -45.42,-87.3 22.72,-34.31 47.99,-48.71 78.6,-50.08 36.52,-1.64 74.59,20.11 83,51.03z"/>
   <path class="fil17" d="M952.21 450.91c14.61,-2.57 42.1,-68.55 44.78,-78.17 -15.23,-9.48 -13.53,-4.84 -26.68,-0.32 -23.24,7.97 -60.13,19.98 -78.57,34.99 22.88,7.35 15.24,-1.61 38.15,-6.44l27.64 18.65c1.06,7.08 1.43,0.66 -0.69,10.36l-4.62 20.92zm83.38 -63.41l2.98 0.94c3.26,37.38 9.57,42.06 -18.94,70.82 -48.22,48.65 -108.69,26.35 -134.24,-5.08 -15.98,-19.65 -20.26,-43 -2.58,-72.1 12.51,-18.19 24.33,-29.2 45.99,-33.86 15.97,9.31 32.58,-1.65 53.88,3.65 34.68,8.63 30.87,26.31 52.91,35.62z"/>
   <path class="fil18" d="M1768.28 1507.93l1.78 -12.52 3.35 -12.22c107.67,-8.64 99.47,4.09 232.44,-19.39 49.6,-8.75 179.46,-44.05 218.81,-68.79 8.52,-3.09 13.24,-3.95 24.09,-6.9 11.02,-2.99 13.58,-1.2 19.36,-13.08 6.82,8.77 0.61,2.18 11.32,10.42 15.19,-8.34 34.71,-14.75 50.3,-14.76 -43.17,40.3 -201.3,94.24 -267.93,109.52 -72.93,16.73 -219.08,40.27 -293.52,27.72z"/>
   <path class="fil19" d="M1574.14 214.7c21.59,36.47 117.22,117.52 123.64,129.44 -12.84,-4.35 -2.85,-5.75 -12.33,-1.32 13.47,23.49 84.15,76.24 110.84,96.91 40.93,50.2 277.87,168.38 346.66,203.86l-4.66 8.28c-212.7,-89.16 -370.25,-208.56 -521.09,-350.73l-111.51 -125.08c-54.14,-65.92 -121.02,-102.57 -132.56,-116.08 55.97,9.21 124.34,78.24 161.78,119.73l28.98 33.71c9.45,5.85 0.82,9.86 10.25,1.28z"/>
   <path class="fil20" d="M1210.07 378.96c-3.74,-12.95 -0.93,-8.7 -0.68,-17.35 0.75,-25.1 4.87,-6.43 -8.01,-20.35l-6.24 41.73 -58.64 12.8c12.13,12.87 38.72,-2.64 61.69,-0.15 -4.14,14.86 -7.47,22.7 -0.8,37.34 6.19,-5.58 0.41,10.82 6.39,-9.66l3.26 -30.24 53.08 -14.48c-17.78,-11.58 -29.2,0.97 -50.04,0.35zm71.54 -10.58l-7.85 1.2c5.18,16.99 -0.33,44.55 -18.09,64.15 -16.68,18.38 -34.29,21.99 -51.59,25.82l6.11 5.66c-12.02,0.85 -38.32,-3.6 -52.06,-10.15 -21.58,-10.3 -29.27,-25.65 -37.48,-38.98 7.67,-0.94 1,8.71 8.98,-6.11 -21.83,-55.93 48.88,-73.62 58.09,-87.2 17.78,-0.85 35.3,-0.98 55.52,8.82 9.96,4.83 17.16,9.13 24.91,16.51 11.49,10.93 11.54,10.02 13.46,20.28z"/>
   <path class="fil21" d="M254.52 1181.07c-17.3,9.43 -91.71,98.26 -103.43,120.24l26.82 12.46 -50.13 -21.04c73.19,-119.84 250.92,-264.25 378.81,-337.27 15.71,-8.98 42.85,-28.03 60.88,-25.99l9.96 7.94c-13.61,21.28 -44.09,29.26 -79.12,49.62 -67.25,39.09 -201.61,135.21 -243.8,194.05z"/>
   <path class="fil22" d="M1533.48 1401.76c9.4,-6.06 9.43,-5.81 13.26,-18.73l-12.22 -11.39c43.29,-3.24 72.65,-1.94 106.49,-35.29 46.27,-45.61 40.13,-102.07 47.37,-123.39 -14.02,28.03 -8.46,11.89 -16.41,15.94 29.02,-48.54 24.68,-55.66 31.7,-102.28 38,57.67 31.34,221.08 -81.06,267.41 -13.89,5.73 -23.4,10.49 -43.04,12.7 -8.94,1.01 -18.59,2.56 -24.65,2.83 -2.04,0.09 -10.89,-0.38 -12.58,-0.97 -9.05,-3.2 -5.02,-0.25 -8.86,-6.81z"/>
   <path class="fil23" d="M1285.26 102.12c41.48,29.39 65.16,44.91 89.36,83.82 10.53,16.94 47.82,77.55 35.13,100.67l-10.06 3.15c-11,-13.15 -11.6,-55.62 -51.59,-107.66 -78.8,-102.52 -223.7,-129 -343.86,-93.39 -14.57,4.32 -18.32,9.63 -28.4,0.69 -1.32,-5.4 5.87,-1.88 -10.23,-11.55 26.28,-9.15 48.82,-19.35 73.93,-25.06 25.07,-5.69 49.65,-11.71 76.7,-16.08 45.2,-7.31 115.04,-12 165.99,-0.92 3.91,1.13 7.61,1.86 11.16,3.92 8.82,5.15 2.96,1.45 6.27,7.4 -64.88,-20.2 -179.86,-10.37 -225.07,5.85 65.35,5.25 140.34,-0.61 210.67,49.15z"/>
   <path class="fil24" d="M2054.44 2500.25l-34.68 -16.5 86.88 -134.67c20.49,-15.38 102.65,-194.13 129.97,-237.62l18.12 7.88 7.67 2.71c-57.81,121.77 -137.87,256.99 -211.53,367.56 1.94,10.02 -7.64,-1.94 3.58,10.65z"/>
   <path class="fil25" d="M776.51 178.98c-3.34,13.36 -26.31,18.58 -40.77,36.34 -9.17,3.58 -32.38,17.5 -42.67,23.92 -41.75,39.01 -101.93,71.1 -143.24,115.01 -22.19,11.87 -57.41,46.61 -80.66,66.92 -23.73,20.73 -57.51,54.93 -80.14,69.59l-18.53 -8.54c13.47,-31.26 246.78,-217.59 301.37,-255.87l76.97 -53.37c19.52,-12.3 8.46,-6.27 24.1,-4.15 -6.77,8.61 -6.88,4.95 3.58,10.15z"/>
   <path class="fil26" d="M1574.14 214.7c-9.43,8.59 -0.8,4.57 -10.25,-1.28l-28.98 -33.71c-37.44,-41.49 -105.81,-110.52 -161.78,-119.73 11.55,13.51 78.42,50.16 132.56,116.08l111.51 125.08 -8.38 8.11c-74.52,-60.72 -106.73,-137.87 -210.88,-213.17 -56.3,-40.71 -54.6,-32.19 -98.28,-48.96 -3.31,-5.95 2.54,-2.25 -6.27,-7.4 -3.55,-2.07 -7.25,-2.8 -11.16,-3.92 15,-6.71 62.8,4.07 85.83,8.63 67.04,13.29 122.56,50.14 168.83,99.38 32.99,35.1 21.81,44.32 37.26,70.89z"/>
   <path class="fil27" d="M1292.24 487.44c-13.4,21.88 0.53,16.08 15.19,13.31 -19.88,34.55 -106.98,58.91 -96.74,191.19 2.13,27.51 34.34,170.97 -22.67,195.56 3.87,-8.8 9.75,-9.33 -1.84,-16.22 -12.25,-7.27 -2.45,-2.12 -17.56,6.82 40.6,-62.94 24,-106.84 17,-158.59 -7.54,-55.73 -6.42,-86.6 15.08,-135.94 1.53,-3.5 3.94,-8.31 4.66,-11.76 3.07,-14.74 4.18,-5.17 -0.54,-16.06 11.18,-7.66 8.65,-2.86 16.88,-9.58 0.9,-0.73 5.59,-5.73 6.2,-6.77 8.05,-13.74 2.8,-5.66 2.57,-10.92l30.88 -22.05c8.27,-6.54 21.29,-19.25 30.88,-19z"/>
   <path class="fil16" d="M1873.98 2618.08c-12.17,0.15 -42.26,7.84 -54.25,10.87 -16.04,-1.83 -32.45,1.16 -50.67,-0.55 -7.14,-0.67 -19.61,-1.59 -27.12,-3.24 -16.38,-3.62 -18.05,-1.62 -16.54,-14.43l11.39 -23.93c61.73,28.8 201.73,-18.16 237.8,-63.74 13.83,-3.7 33.54,-22.92 45.17,-39.3l34.68 16.5c-19.39,27.52 -58.82,53.65 -86.4,71.9 -15.84,10.47 -31.55,19.36 -47.77,27.06 -17.45,8.28 -33.15,10.93 -46.3,18.87z"/>
   <path class="fil28" d="M1597.95 1773.15c-9.53,16.33 -13.44,58.31 -16,76.67l-14.72 -6.44c8.38,-45.46 27.29,-115.07 14.64,-149.98 8.56,-15.29 8.68,-22.99 -1.84,-33.19 -16.24,-14.7 -24.45,-46.11 -55.62,-72.97 -25.51,-21.97 -63.82,-39.31 -93.32,-56.69 -87.8,-51.72 -93.34,-80.73 -143.44,-129.7l14.87 -18.01c27.3,35.84 49.01,65.6 90.2,96.93 59.43,45.23 183.43,88.98 206.46,180.28 7.62,30.22 -4.85,-1.59 -3.6,20.27 0.57,9.99 4.02,13.98 3.87,29.98 -0.22,23.36 -5.75,48.99 -1.5,62.84z"/>
   <path class="fil11" d="M895.15 214.77c7.85,18.29 20.91,30.42 44.96,41.95l60.54 -55.4c-18.87,-13.43 -39.6,-23.24 -60.98,-27.79l-8.86 24.81c-19.49,-4.58 -26.29,-3.47 -35.66,16.43zm136.22 -19.69c-0.66,11.41 0.19,15.01 -0.86,28.94 -15.26,-8.18 -13.76,39.18 -76.84,50.67 -20.97,3.81 -17.98,-6.88 -31.28,5.76 -29.42,-10.42 -41.56,-25.13 -55.31,-43.08 -0.02,-0.87 0.47,-3.03 0.1,-2.62l0.8 -11.67c0.42,-15.62 4.82,-4.45 -2.37,-16.14 16.73,0.85 7.84,0.04 21.89,-16.66 27.09,-32.18 41.71,-20.36 55.45,-37.67 23.82,-12.4 70.71,6.65 88.43,42.46z"/>
   <path class="fil26" d="M2619.09 966.2c-26.38,-15.99 -39.64,-92.4 -75.81,-120.57l-14.22 19.37 -5.22 -8.12 14.22 -14.54c-7.12,-23.46 -38.81,-44.14 -62,-63.45 -25.29,-21.07 -65.58,-36.83 -97.63,-53.5 66.29,-50.93 238.06,126.94 245.14,192.98 1.99,18.53 -11.51,31.81 -4.48,47.83z"/>
   <path class="fil29" d="M2523.84 856.88c-28,-26.82 -49.44,-52.42 -84.61,-72.26 -42.41,-25.72 -107.94,-58.95 -154.42,-75.58 -23.53,-8.43 -47.32,-18.48 -71.73,-28.33 -27.01,-10.89 -44.42,-12 -74.79,-28.83l4.66 -8.28 4.96 -10.89 230.52 92.68c32.05,16.68 72.34,32.44 97.63,53.5 23.19,19.31 54.88,39.99 62,63.45l-14.22 14.54z"/>
   <path class="fil30" d="M1362.91 1106.46c-11.1,-1.19 -11.76,5.48 -18.15,15.09 -35.33,34.08 -62.58,88.18 -67.87,138.45 -2.54,24.18 0.97,45.55 4.86,64.55 4.76,23.35 9.18,24.2 16.88,41.76 6.4,14.6 5.75,3.11 3.88,16.53l-14.87 18.01c-15.52,-12.08 -29.73,-54.38 -33.88,-70.16 -9.25,-35.18 -2.71,-51.3 -6.71,-80.62l2.92 -15.39 38.41 -94.3 61.95 -68.58c14.06,12.92 21.48,17.67 12.58,34.64z"/>
   <path class="fil31" d="M1188.02 887.49c-42.35,69.32 -144.52,110.97 -197.37,118.74 -97.57,14.34 -154.07,-18.43 -232.29,-89.68l8.29 -13.95c19.84,0.47 84,102.08 217.64,84.71 38.42,-4.99 64.96,-15.53 99.23,-33.43 23.56,-12.32 70.43,-46.35 85.1,-75.78 15.1,-8.94 5.31,-14.09 17.56,-6.82 11.6,6.89 5.72,7.42 1.84,16.22z"/>
   <path class="fil6" d="M1580.03 1660.21c10.52,10.2 10.4,17.9 1.84,33.19 -61.79,-11.32 -98.7,-5.2 -163.2,-48.79 -41.1,-27.79 -90.69,-77.03 -107.07,-113.06 32.16,-22.47 30.54,0.59 53.35,26.91 51.17,59.05 149.26,117.38 215.07,101.75z"/>
   <path class="fil32" d="M1804.44 1581.76l-1.15 -8.85c9.1,-17.64 29.44,-13.28 44.78,-15.31l320.31 -55.08 -1.33 11.68 13.1 -1.44c9.59,-1.22 -0.5,-0.65 9.06,-1.13 -11.65,26.16 -373.14,74.17 -384.77,70.12z"/>
   <path class="fil31" d="M1652.29 2436.74c-0.02,0.02 -8.3,15.3 -17.38,-18.96 -0.25,-0.94 -0.56,-2.31 -0.78,-3.17l-1.56 -6.48c1.14,-5.77 1.48,-2.5 1.27,-9.3 -0.22,-7.24 -0.87,-5.09 -2.52,-10.05 5.82,-13.18 15.83,-145.19 19.73,-175.59 2.96,-23.14 17.12,-163.28 26.39,-171.39 3.7,15.29 -3.14,4.43 7.52,16.98l8.34 -17.31c2.4,9.8 -21.33,175.9 -24.34,200.7 -3.97,32.78 -6.94,64.78 -9.78,97.93 -2.6,30.34 -2.21,69.66 -6.88,96.64z"/>
   <path class="fil33" d="M1662.73 902.83c-12.56,19.23 -30.09,34.85 -45.41,44.11 -133.67,-78.88 -83.45,-64.58 -43.56,-111.86l88.97 67.76z"/>
   <path class="fil34" d="M2224.65 1395.01c-56.61,3.6 -95.43,8.44 -160.94,-11.05 -40.99,-12.2 -140.91,-59.76 -143.9,-99.94 8.92,2.58 4.62,2.69 5.31,-6.27 29,17.92 47.2,41.25 79.55,59.07 59.03,32.52 116.01,43.97 180.57,41.4 31.43,-1.25 54.08,-11.42 79.81,-11.95l3.04 8.77c-5.78,11.88 -8.34,10.09 -19.36,13.08 -10.85,2.95 -15.57,3.81 -24.09,6.9z"/>
   <path class="fil35" d="M1197.57 1230.1c-49.28,18.35 -88.83,28.36 -148.79,33.78 -43.19,3.89 -134.18,-3.53 -171.33,-45.68l10.05 -13.78c29.13,8.87 46.01,25.74 83.15,32.7 24.56,4.61 49.96,6 73.98,4.82 38.7,-1.92 112.9,-16.13 135.07,-29.38 4.85,2.08 8.42,2.27 12.94,6.3 8.39,7.5 5.3,1.7 4.95,11.24z"/>
   <path class="fil36" d="M882.81 382.09c-17.68,29.09 -13.39,52.45 2.58,72.1 25.55,31.43 86.01,53.73 134.24,5.08 28.51,-28.76 22.2,-33.44 18.94,-70.82 37.84,44.39 -4.92,125.49 -86.85,126.89 -108.18,1.83 -113.96,-109.5 -68.91,-133.24z"/>
   <path class="fil23" d="M1169.99 1003.87l-25.56 19.31 -8.23 10.67c-15.09,-2.18 -5.92,-2.62 -23.78,5.97 -7.89,3.78 -11.02,5.86 -18.9,9.65 -35.04,16.86 -88.82,25.92 -129.57,27.56 -45.22,1.8 -161.59,-19.02 -193.73,-65.05 11.61,-12.99 6.34,-12.28 24.57,-1.53 7.98,4.7 17.18,12.25 26.22,17.53 78.61,45.92 182.01,39 261.39,6.96 17.31,-6.98 27.21,-10.59 43.66,-20.04 11.22,-6.45 30.46,-21.99 41.05,-25.87 9.15,15.1 3.16,3.66 2.88,14.83z"/>
   <path class="fil37" d="M1389.57 787.67c-26.63,-17.18 -71.3,-77.96 -83.06,-104.22 29.01,-3.24 111.76,34 143.66,51.24 -9.54,16.02 -45.56,44.94 -60.6,52.98z"/>
   <path class="fil38" d="M867.08 237.36c13.75,17.95 25.89,32.66 55.31,43.08 43.32,14.95 88.05,-8.68 108.12,-56.42 1.05,-13.93 0.2,-17.53 0.86,-28.94 36.07,40.35 4.35,101.82 -52.56,118.41 -42.76,12.47 -123.31,-13.26 -111.73,-76.13z"/>
   <path class="fil39" d="M536.72 751.52l-10.12 -3.67 3.26 -6.08c59.98,-30.54 52.23,-45.09 53.63,-104.3 1.79,-76.1 18.2,-190 46.59,-261.95 9.43,-23.86 17.84,-47.47 29.56,-70.43l30.84 -50.69c6.42,-15.11 3.45,-6.33 2.6,-15.16 10.29,-6.43 33.49,-20.35 42.67,-23.92 -76.33,112.95 -95.26,136.72 -128.67,284.98 -17.93,79.56 -11.02,184.93 -19.75,203.5 -11.67,24.81 -33.96,31.46 -50.61,47.72z"/>
   <path class="fil40" d="M1115.87 387.76l4.78 28.31c8.21,13.33 15.9,28.68 37.48,38.98 13.75,6.55 40.04,11 52.06,10.15 20.09,-6.5 38.99,-11.19 54.95,-31.42 18.3,-23.17 17.19,-44.49 16.46,-65.41 21.41,15.85 19.46,49.97 3.54,77.75 -12.42,21.67 -41.33,39.44 -67.15,44.13 -63.7,11.57 -134.86,-40.67 -102.13,-102.5z"/>
   <path class="fil41" d="M1768.28 1507.93c-36.9,7.42 -94.07,-7.23 -133.18,-7.26l-21.26 -0.79c-29.79,-16.97 -95.92,-29.59 -141.26,-52.42 -23.31,-11.74 -46.47,-25.81 -66.2,-41.91 -14.76,-12.04 -40.05,-28.55 -38.18,-47.08 5.67,3.71 2.95,3.43 6.62,-3.94 48.28,57.44 118.79,93.13 194.15,114.64 37.37,10.66 68.82,17.03 104.78,20.64 30.35,3.04 71.08,1.42 96.31,5.6l-1.78 12.52z"/>
   <path class="fil42" d="M766.65 902.6l-8.29 13.95c-22.42,-20.98 -58.95,-78.54 -74.17,-107.35 -0.95,-9.54 8.12,2.68 -4.36,-10.62 -0.25,-1.05 -0.22,-3.65 -0.84,-3.16 -4.16,3.29 0.02,0.06 -3.84,-15.19l-15.7 -51.45c-5.06,-23.65 -10.67,-46.83 -12.96,-74.49 -3.06,-37.08 -8.49,-123.32 7.39,-161.4l0.26 11.27 6.17 -6.73c2.49,10.08 -2.74,89.69 -2.65,108.91 0.17,37.89 5.19,71.9 12.45,106.23 9.95,47.07 45.07,150 96.54,190.03z"/>
   <path class="fil43" d="M842.52 1161.88c10.98,14.48 27.33,28.46 44.97,42.55l-10.05 13.78c-22.37,-17.34 -39.98,-34.31 -56.48,-54.45 -17.01,-20.74 -26.79,-41.18 -41.9,-58.33 -5.28,-14.01 -10.69,-25.78 -23.46,-35.71 -2.24,-11.99 -8.33,-19.56 -14.07,-30.74l-38.47 -69.31c-5.87,-9.55 -16.04,-16.57 -17.22,-26.86l-10.41 -13.71 4.89 -8.91c12.28,-7.74 15.69,5.79 24.45,20.4 36.83,61.44 103.11,185.75 137.75,221.3z"/>
   <path class="fil44" d="M660.31 497.42l-6.17 6.73 -0.26 -11.27c10.04,-68.08 40.52,-145.77 75.95,-209.62 59.22,-106.73 95.55,-110.34 136.05,-153.66 -21.9,10.04 -68.87,31.77 -89.36,49.38 -10.46,-5.2 -10.35,-1.54 -3.58,-10.15 16.45,-9.65 31.23,-17.25 47.27,-26.6l94.79 -46.29c28.38,-9.69 32.07,-20.27 50.61,-18.08 16.1,9.67 8.91,6.14 10.23,11.55 -68.57,16.88 -147.09,66.95 -199.63,137.43 -68.04,91.29 -89.28,166.13 -115.89,270.58z"/>
   <path class="fil45" d="M2393.33 1923.85c-0.54,-4.74 -1.19,-2.53 0.63,-10.53 0.97,-4.28 2.36,-7.29 4.07,-11.33 2.37,-5.63 6.63,-13.52 9.41,-19.34 5.45,-11.4 10.69,-22.81 15.9,-34.33 11.9,-26.37 23.21,-52.96 34.41,-79.62 20.69,-49.29 39.49,-98.82 57.62,-148.74 17.54,-48.32 35.14,-96.31 49.62,-145.43l35.29 -125.77c4.31,-11.11 0.9,-2.84 5.14,-9.11l5.27 -4.93c4.16,20.86 -31.86,127.94 -37.24,146.19 -15.34,51.98 -143.41,404.39 -174.24,438.85 -0.6,0.67 -2.94,2.78 -2.86,2.16 0.08,-0.62 -1.94,1.42 -3,1.95z"/>
   <path class="fil46" d="M1398.17 517.01c-25.64,25.36 -47.69,41.78 -73.86,63.89 -43.24,36.54 -38.41,40.47 -68.73,89.37 -13.44,-5.89 -5.57,-5.4 -14,-1.99l-10.25 -6.09c23.03,-74.82 98.91,-116.94 145.03,-163.44l21.81 18.26z"/>
   <path class="fil33" d="M1700.76 1122.8l-10.15 0.55 -1.5 14.84c-0.63,-0.14 -1.25,-1.41 -1.66,-0.97 -3.13,3.25 -7.31,-20.64 -19.81,-40.09 -39.85,-62.03 -104.39,-62.99 -158.32,-56.72l-10.06 3.82 -16.01 -8.47c-1.55,-9.73 -0.69,-3.29 1.43,-14.55 40.47,1.22 66.54,-20.26 127.56,3.77 46.64,18.37 87.05,62.28 88.52,97.82z"/>
   <path class="fil17" d="M1804.44 1581.76c-10.81,6.92 -14.14,6.18 -25.95,13.26 -48.64,29.11 -58.53,159.31 -63.47,208.84 -3.64,36.48 -26.25,216.56 -21.72,237.62l-8.34 17.31c-10.66,-12.55 -3.82,-1.69 -7.52,-16.98 8.64,-29.17 11.43,-93.56 14.55,-126.18 4.07,-42.54 7.63,-82.12 12.74,-124.13 9.73,-80.02 13.63,-197.56 98.57,-218.59l1.15 8.85z"/>
   <path class="fil47" d="M2069.67 1077.53c-10.27,39.53 -47.12,48.69 -62.23,81.99 6.79,17.17 29.22,33.93 48.95,45.1 42.21,23.89 29.46,2.23 56.8,-5.22 -1.7,9.73 -3.94,2.57 2.91,10.02 2.47,-3.55 4.92,-7.94 8.1,-11.12 8.94,-8.92 5.33,-3.93 9.16,-5.96 -16.24,28.68 -26.82,50.09 -59.66,41.91 -12.03,-2.99 -128.35,-48.41 -65.71,-111.15 11.17,-11.2 44.03,-50.37 51.58,-55.55l0.79 15.05c9.16,-0.64 2.08,12.01 9.31,-5.06z"/>
   <path class="fil26" d="M1489.6 1053.72c-3.83,-8.55 11.37,-0.43 -6.05,-8.43 -23.9,11.32 -41.47,30.25 -53.39,57.58 -26.18,23.54 -24.46,67.74 -20.08,90.29 11.21,57.67 50.24,40.79 22.21,76.45 -108.82,-115 -2.85,-222.22 50.97,-233.87l16.01 8.47 10.06 -3.82c-8.76,16.52 -2.36,10.03 -19.72,13.32z"/>
   <path class="fil48" d="M2557.9 1263.9c-6.35,2.15 -72.14,72.73 -83.03,83.17 -25.71,24.6 -64.11,51.92 -90.66,68.62 -99.63,62.65 -112.59,56.21 -195,95.96 -9.56,0.48 0.53,-0.09 -9.06,1.13l-13.1 1.44 1.33 -11.68 78.46 -25.54c10.5,-4.62 14.82,-7.45 27.23,-13.04 32.23,-14.52 69.16,-35.37 103.82,-57.2 63.52,-40.04 132.74,-102.53 186.13,-169.19 11.87,-7.44 4.36,-7.82 20.17,-2.9l-26.29 29.24z"/>
   <path class="fil49" d="M1534.52 1371.63l12.22 11.39c-3.83,12.92 -3.86,12.67 -13.26,18.73 -45.75,-32.19 -76.72,-25.19 -125.12,-75.47 -27.49,-28.56 -43.8,-41.97 -41.29,-74.54 0.92,-11.96 -2.01,-16.14 6.2,-22.68 16.96,39.98 21.26,47.93 54.42,84.43 24.66,27.16 66.75,47.27 106.84,58.13z"/>
   <path class="fil43" d="M2523.84 856.88l5.22 8.12c30.74,41.49 51.32,89.96 56.05,144.97 2.11,24.58 4.19,148.22 -10.22,161 -7.56,-12.9 0.44,-82.85 0.9,-104.15 0.91,-41.3 -1.73,-69.97 -9.67,-104.02 -13.7,-58.76 -60.98,-122.11 -134.34,-168.67 -6.21,-11.17 -0.7,1.12 -2.79,-13.23l10.24 3.72c35.17,19.84 56.61,45.44 84.61,72.26z"/>
   <path class="fil50" d="M1169.99 1003.87c0.28,-11.17 6.27,0.27 -2.88,-14.83 42.67,-28.04 87.51,-104.36 88.74,-160.55 1.15,-52.8 -27.02,-111.4 -14.27,-160.2 8.43,-3.42 0.56,-3.9 14,1.99 -8.81,19.94 0.56,63.08 3.61,81.29 5.11,30.42 12.38,49.31 9.34,85.24 -4.89,57.68 -53.36,143.05 -98.53,167.06z"/>
   <path class="fil51" d="M2235.2 1107.44c70.52,-87.58 -63.34,-165.68 -124.64,-93.67 -33.48,39.32 -23.6,88.7 13.34,111.58 39.65,24.56 88.34,10.59 111.3,-17.91zm26.84 -61.81l3.31 18.56c-17.64,37.09 -17.13,56.03 -56.54,73.79 -65.02,29.32 -135.83,-17.12 -125.96,-85.3 6.41,-44.28 39.12,-56.95 58.86,-74.56 12.03,0.64 24.13,2.19 37.41,-4.93 50.99,20.94 73.15,22.59 82.91,72.44z"/>
   <path class="fil50" d="M2147.92 632.7l-4.96 10.89c-68.79,-35.48 -305.73,-153.66 -346.66,-203.86l4.33 -8.62c97.27,74.78 233.29,147.92 347.29,201.59z"/>
   <path class="fil52" d="M2218.38 1169.65l4.49 -7.57c30.73,16.34 56.78,51.21 84.57,34.99 21.32,-12.45 52.4,-44.39 56.26,-72.19 -17.27,-24.06 -60.93,-30.92 -85.21,-58.27l-4.3 -10.64c9.57,-5.11 -8.78,-16.67 14.58,1.08 -0.77,21.68 65.55,44.18 86.51,55.61 18.5,64.39 -82.16,108.44 -83.57,108.49 -20.38,-7.32 -27.45,-11.83 -45.03,-23.94 -28.07,-19.33 -23.31,-15.63 -28.3,-27.56z"/>
   <path class="fil33" d="M844.99 807.03c-8.91,-17.35 -0.73,-5.37 -11.9,-15.62 -6.09,18.69 -4.69,2.17 -2.21,17.04l-8.34 -5.81c-17.12,-34.46 -27.24,-42.41 -26.46,-84.84 0.63,-34.64 22.71,-78.07 50.59,-92l10.54 6.11 -0.64 5.88c-0.19,0.71 -0.44,2.12 -0.71,2.89 -4.72,13.61 -14.62,16.61 -24.58,33.37 -9.35,15.72 -13.68,33.11 -13.27,48.83 0.38,14.83 2.89,29.27 10.11,43.96 8.26,16.84 24.56,22.24 16.87,40.18z"/>
   <path class="fil53" d="M1102.05 203c2.31,4.69 4.58,27.28 16.5,43.85 5.02,6.96 27.92,34.01 38.27,24.79 9.21,11.91 41.38,7.53 54.48,4.96 35.55,9.06 62.36,-45.66 66.13,-80.55 5.37,9.83 3.26,2.32 4.92,14.56 14.2,105.09 -203.92,133.44 -180.29,-7.6z"/>
   <path class="fil12" d="M2288.77 1057.06c-23.36,-17.75 -5.01,-6.19 -14.58,-1.08l4.3 10.64c-14.14,-10.73 -3.17,-7.77 -13.14,-2.42l-3.31 -18.56c9.14,-4.93 6.99,-9.14 15.64,-24 26.5,-45.55 50.06,-41.5 59.28,-79.68 -8.95,-12.75 -30.96,-27.45 -39.06,-40.91l11.11 3.68c-4.57,-13.58 -21.42,-17.61 -41.33,-27.65l16.06 3.03c24.61,7.62 78.92,40.21 70.03,75.13 -5.61,22.04 -23.53,32.56 -36.22,45.91 -27.95,29.39 -29.51,41.47 -28.78,55.93z"/>
   <path class="fil54" d="M1098.91 728.71l-4.16 14.59c-22.78,64 -56.78,93.08 -105.46,108.6 -53.11,16.93 -100.56,12.68 -152.61,-39.38l-5.81 -4.07c-2.48,-14.87 -3.88,1.65 2.21,-17.04 11.17,10.25 2.99,-1.73 11.9,15.62 29.46,24.84 38.64,36.11 80.55,42.46 26.82,4.07 56.17,-2.93 77.64,-12.45 59.11,-26.24 83.96,-81.2 85.95,-144.83l6.46 -5.86c5.4,11.24 3.69,5.95 3.63,21.12 -0.03,6.61 -0.31,15.61 -0.31,21.24z"/>
   <path class="fil14" d="M1204.83 555.75c-49.68,25.85 -199.33,40.6 -233.46,18.01 -8.92,-5.9 -10.95,-15.15 -10.97,-15.18 73.26,17 204.16,14.79 270.09,-30.11 0.22,5.26 5.47,-2.82 -2.57,10.92 -0.62,1.04 -5.3,6.04 -6.2,6.77 -8.23,6.72 -5.7,1.92 -16.88,9.58z"/>
   <path class="fil55" d="M719.69 1195.43c13.73,-10.77 36.04,-34.46 48.01,-40.85 13.04,25.95 -183.83,138.03 -204.4,147.83 -40.72,19.41 -201.1,84.57 -236.89,75.03 14.66,-12.04 -1.64,-2.44 16.71,-6.98l101.17 -27.4c21.08,-7.3 38.06,-16.79 58.5,-22.98 18.72,-5.66 38.43,-15.94 55.15,-23.79 58.68,-27.57 108.9,-59.38 161.75,-100.85z"/>
   <path class="fil24" d="M1095.59 686.36l-6.46 5.86c-13.97,-18.65 -11.77,-29.57 -37.1,-54.18 -18.83,-18.3 -44.71,-32.34 -71.73,-36.94 -55.48,-9.43 -82.56,4.02 -123.09,30.83l-10.54 -6.11c32.77,-30.62 82.02,-47.3 133.19,-37.1 40.27,8.03 78.88,30.07 101.53,64.58 9.35,14.23 13.95,21.28 14.19,33.07z"/>
   <path class="fil56" d="M1342.29 465.9c-11.65,10.31 -27.33,21.69 -34.86,34.85 -14.66,2.77 -28.59,8.57 -15.19,-13.31 20.7,-5.19 62.6,-55.14 76.52,-80.25 23.49,-42.35 29.53,-75.47 30.93,-117.42l10.06 -3.15c8.19,19.51 0.12,59.31 -11.59,88.02 -17.74,43.5 -31.33,58.25 -55.87,91.26z"/>
   <path class="fil57" d="M250.95 1342.97c-49.63,-4.41 -164.87,-34.97 -185.09,-85.78 6.25,-4.57 3.93,-0.2 3.83,-9.12l7.95 5.72c12.71,16.29 30.04,29.88 50.14,38.94l50.13 21.04c24.15,9.83 55.76,15.03 78.44,14.23l8.6 -24.98 11.72 0.02c-12.72,11.82 -9.46,22.87 -25.72,39.93z"/>
   <path class="fil58" d="M939.73 243.76l17.95 -18.65c-17.54,-11.16 -31.99,-22.79 -48.71,-13.3 2.26,15.62 15.38,24.54 30.76,31.95zm32.64 -28.39l12.31 -12.18c-14.19,-8.61 -28.43,-15.78 -41.36,-15.27 0.38,7.54 2.87,10.87 8.23,16.56 14.67,15.57 20.13,10.2 20.82,10.89zm-32.27 41.35c-24.05,-11.53 -37.11,-23.66 -44.96,-41.95 9.38,-19.9 16.17,-21.01 35.66,-16.43l8.86 -24.81c21.38,4.54 42.11,14.35 60.98,27.79l-60.54 55.4z"/>
   <path class="fil20" d="M2124.91 953.61c-2.03,9.28 -0.44,5.72 -6.36,12.96 -41.18,-25.88 -59.42,-71.97 -92.61,-44.41l-19.64 17.21c-5.61,3.5 -4.79,2.78 -8.69,4.2 -12.26,-6.39 -2.79,-4.86 -12.52,-3.04 12.58,-23.1 43.03,-52.44 69.96,-44.07 21.03,6.54 61.06,42.51 69.86,57.15z"/>
   <path class="fil54" d="M1703.67 1126.6c-7.01,46.62 -2.68,53.75 -31.7,102.28 -64.5,76.52 -155.41,74.41 -168.15,53.4 13.09,-4.89 16.25,0.43 34.24,0.86 101.75,2.45 164.3,-93.76 151.04,-144.96l1.5 -14.84 10.15 -0.55 2.91 3.8z"/>
   <path class="fil17" d="M836.69 812.52c-9,31.84 12.04,78.96 42.79,100.68 62.09,43.87 104.49,15.09 117.4,36.71l-30.52 2.87c-59.12,-3.65 -113.77,-28.07 -136.34,-85.58 -3.88,-9.91 -10.21,-48.31 -7.48,-64.55l8.34 5.81 5.81 4.07z"/>
   <path class="fil59" d="M783.55 120.73c32.66,-34.07 160.92,-81.77 219.97,-100.12 24.89,-7.73 53.22,-23.9 79.74,-20.02l-150.9 52.75c-6.03,2.4 -9.84,2.82 -16.86,5.56l-110.69 55.5c-14.52,8 -7.19,5.92 -21.26,6.33z"/>
   <path class="fil60" d="M1374.82 1354.54c-3.67,7.37 -0.95,7.65 -6.62,3.94 -26.16,-26.6 -44.85,-77.27 -48.34,-106.74 -5.59,-47.17 2.18,-77.6 24.91,-130.18 6.39,-9.61 7.05,-16.28 18.15,-15.09 -28.7,67.44 -39.12,75.15 -33.54,139.09 3.55,40.63 18.28,71.25 45.46,108.99z"/>
   <path class="fil27" d="M2297.91 901.04c-80.75,-34.89 -56.56,17 -110.18,62.47 -11.79,10.01 -7.83,1.8 -8.6,9.69 -13.28,7.12 -25.37,5.57 -37.41,4.93l-23.16 -11.56c5.92,-7.24 4.33,-3.68 6.36,-12.96 71.02,56.41 80.3,-83.38 142.77,-76.55 19.91,10.05 36.76,14.07 41.33,27.65l-11.11 -3.68z"/>
   <path class="fil58" d="M982.99 380.32c-13.39,1.3 -29.97,7.24 -40.67,16.63l25.58 14.23 15.09 -30.86zm-30.78 70.6l4.62 -20.92c2.12,-9.7 1.75,-3.28 0.69,-10.36l-27.64 -18.65c-22.91,4.83 -15.27,13.79 -38.15,6.44 18.44,-15.01 55.33,-27.03 78.57,-34.99 13.15,-4.51 11.46,-9.15 26.68,0.32 -2.68,9.62 -30.17,75.59 -44.78,78.17z"/>
   <path class="fil59" d="M684.18 809.19c-62.93,-39.54 -86.91,-19.57 -138.59,-0.41 -30.15,11.18 -54.46,25.97 -83.5,42.18 -11.66,6.5 -51.75,32.15 -62.46,32.27l2.15 -7.93c12.33,-4.01 46.71,-25.58 63.04,-34.6 22.52,-12.45 41.92,-24.08 64.67,-33.1 42.06,-16.7 84.27,-50.67 150.32,-9.04 12.48,13.3 3.41,1.08 4.36,10.62z"/>
   <path class="fil61" d="M2069.67 1077.53c-7.23,17.07 -0.14,4.42 -9.31,5.06l-0.79 -15.05c-5.47,-17.41 -10.95,-17.25 -31.14,-31.34 -6.19,-4.33 -25.64,-16.99 -36.44,-25.34 -29.67,-22.95 -35.1,-41.47 -6.88,-70.32 9.73,-1.81 0.26,-3.35 12.52,3.04l-22.86 25.05c16.5,54.65 100.71,57.05 94.9,108.91z"/>
   <path class="fil45" d="M1210.07 378.96c20.84,0.62 32.26,-11.93 50.04,-0.35l-53.08 14.48 -3.26 30.24c-5.98,20.48 -0.19,4.09 -6.39,9.66 -6.67,-14.64 -3.34,-22.47 0.8,-37.34 -22.96,-2.48 -49.55,13.03 -61.69,0.15l58.64 -12.8 6.24 -41.73c12.87,13.92 8.76,-4.75 8.01,20.35 -0.25,8.66 -3.06,4.41 0.68,17.35z"/>
   <path class="fil62" d="M1430.16 1102.87c11.92,-27.33 29.49,-46.26 53.39,-57.58 17.43,8.01 2.22,-0.11 6.05,8.43 -23.89,17.08 -46.73,23.41 -53.75,67.65 -7.2,45.33 16.21,51.29 15.44,80.3 -27.2,-25.27 -29.81,-58.44 -21.14,-98.8z"/>
   <path class="fil45" d="M1800.62 431.12l-4.33 8.62c-26.69,-20.67 -97.37,-73.42 -110.84,-96.91 9.48,-4.43 -0.52,-3.03 12.33,1.32l102.84 86.98z"/>
   <path class="fil62" d="M1027.86 658.27c-18.2,4 -9.39,-9.5 -40.97,-20.56 -26.08,-9.13 -57.47,-3.43 -79.92,6.73 -44.63,20.18 -9.6,18.71 -36.87,15.69 23.37,-32.2 126.81,-61.37 157.77,-1.87z"/>
   <path class="fil14" d="M1571.31 1223.76c4.29,-8.25 1.65,-4.89 9.54,-9.68 17.68,-10.77 29.59,-15.38 42.81,-42.26 15.43,-31.37 6.88,-52.12 9.83,-76.27 35.84,34.18 -18.92,135.81 -62.18,128.22z"/>
   <path class="fil58" d="M1193.96 192.79c16.24,0.18 30.6,-6.21 45.75,0.32 -11.94,10.91 -27.2,8.25 -41.96,11.54 -24.56,5.47 -22.22,23.43 -41.77,26.5 -0.85,-7.19 -11.47,4.76 4.34,-13.99 38.1,-45.22 11.36,-21.46 24.99,-55.72 14,12.95 3.66,13 8.65,31.35z"/>
   <path class="fil63" d="M1094.75 743.3l4.16 -14.59c42.21,46.18 39.46,122.85 9.52,149.25l10.16 -38.35c7.73,-30.54 4.19,-62.3 -11.95,-87.73 -8.8,-13.87 -9.72,-8.71 -11.88,-8.59z"/>
   <path class="fil64" d="M922.39 280.45c13.3,-12.64 10.31,-1.95 31.28,-5.76 63.08,-11.49 61.58,-58.85 76.84,-50.67 -20.07,47.75 -64.81,71.38 -108.12,56.42z"/>
   <path class="fil58" d="M1277.42 196.04c-3.76,34.89 -30.57,89.61 -66.13,80.55 10.3,-14.62 25.82,-13.13 40.97,-35.61 16.36,-24.28 9.33,-49.77 20.73,-55.69 4.26,5.7 3.24,-2.32 4.42,10.76z"/>
   <path class="fil58" d="M1035.59 387.51c-22.04,-9.32 -18.23,-27 -52.91,-35.62 -21.3,-5.3 -37.91,5.66 -53.88,-3.65 26.28,-20.53 105.32,-2.12 106.79,39.27z"/>
   <path class="fil43" d="M2218.38 1169.65c-31.18,-23.35 -65.95,-3.21 -85.02,22.68 -3.83,2.03 -0.22,-2.96 -9.16,5.96 -3.18,3.18 -5.63,7.57 -8.1,11.12 -6.85,-7.44 -4.61,-0.28 -2.91,-10.02 24.69,-29.12 71.65,-71.74 109.68,-37.32l-4.49 7.57z"/>
   <path class="fil54" d="M675.43 929.1c-36.44,-18.88 -78.26,-7.6 -98,8.3l-9.96 -7.94c8.02,-4.89 41.96,-18.03 53.05,-19.79 19.47,-3.08 38.18,-0.33 59.8,10.51l-4.89 8.91z"/>
   <path class="fil65" d="M1249.97 1234.69l-2.92 15.39c-23.44,-10.51 -28.13,-21.54 -49.48,-19.98 0.35,-9.54 3.45,-3.74 -4.95,-11.24 -4.51,-4.02 -8.09,-4.22 -12.94,-6.3 5.4,-3.22 -1.44,-5.27 14.36,-4.9 6.52,0.16 9.64,1.83 16.98,5.1 13.53,6.03 28.1,15.6 38.94,21.93z"/>
   <path class="fil11" d="M939.73 243.76c-15.38,-7.41 -28.5,-16.33 -30.76,-31.95 16.72,-9.49 31.17,2.14 48.71,13.3l-17.95 18.65z"/>
   <path class="fil58" d="M865.61 206.94c14.69,-33.28 50.7,-60.91 77.34,-54.33 -13.74,17.31 -28.36,5.49 -55.45,37.67 -14.05,16.7 -5.16,17.51 -21.89,16.66z"/>
   <path class="fil59" d="M1120.65 416.07l-4.78 -28.31c9,-17.82 14.36,-33.2 30.01,-46.33 13.53,-11.36 28.45,-18.62 41.85,-18.67 -9.2,13.58 -79.91,31.27 -58.09,87.2 -7.98,14.82 -1.31,5.17 -8.98,6.11z"/>
   <path class="fil44" d="M1156.82 271.64c-10.35,9.22 -33.25,-17.82 -38.27,-24.79 -11.92,-16.57 -14.19,-39.16 -16.5,-43.85l9.35 -18.66c13.76,30.33 -19.68,34.03 45.42,87.3z"/>
   <path class="fil51" d="M1210.19 465.2l-6.11 -5.66c17.29,-3.83 34.91,-7.44 51.59,-25.82 17.76,-19.6 23.28,-47.16 18.09,-64.15l7.85 -1.2c0.73,20.91 1.83,42.23 -16.46,65.41 -15.97,20.22 -34.86,24.92 -54.95,31.42z"/>
   <path class="fil11" d="M972.37 215.37c-0.69,-0.69 -6.15,4.68 -20.82,-10.89 -5.36,-5.7 -7.86,-9.02 -8.23,-16.56 12.92,-0.52 27.17,6.66 41.36,15.27l-12.31 12.18z"/>
   <path class="fil17" d="M967.89 411.18l-25.58 -14.23c10.7,-9.39 27.28,-15.33 40.67,-16.63l-15.09 30.86z"/>
  </g>
 </g>
</svg>
