<?xml version="1.0" encoding="UTF-8"?>
<!DOCTYPE svg PUBLIC "-//W3C//DTD SVG 1.1//EN" "http://www.w3.org/Graphics/SVG/1.1/DTD/svg11.dtd">
<!-- Creator: CorelDRAW -->
<svg xmlns="http://www.w3.org/2000/svg" xml:space="preserve" width="162.76mm" height="162.76mm" version="1.1" style="shape-rendering:geometricPrecision; text-rendering:geometricPrecision; image-rendering:optimizeQuality; fill-rule:evenodd; clip-rule:evenodd"
viewBox="0 0 16276 16276"
 xmlns:xlink="http://www.w3.org/1999/xlink"
 xmlns:xodm="http://www.corel.com/coreldraw/odm/2003">
 <defs>
  <style type="text/css">
   <![CDATA[
    .fil0 {fill:#FFCA5E;fill-rule:nonzero}
   ]]>
  </style>
 </defs>
 <g id="Camada_x0020_1">
  <metadata id="CorelCorpID_0Corel-Layer"/>
  <path class="fil0" d="M6727.54 9232.63c-145.81,0 -259.85,-37.44 -342.1,-112.34 -82.25,-74.9 -123.38,-178.98 -123.38,-312.23 0,-90.06 16.6,-172.54 49.77,-247.44 33.19,-74.9 79.46,-140.15 138.81,-195.74 59.35,-55.6 129.45,-98.57 210.31,-128.89 80.85,-30.33 168.94,-45.49 264.28,-45.49 89.73,0 161.24,15.62 214.52,46.86 53.27,31.25 79.91,73.98 79.91,128.2 0,43.2 -15.65,78.81 -46.97,106.84 -31.3,28.03 -71.27,42.04 -119.87,42.04 -45.8,0 -88.56,-12.18 -128.29,-36.53 -39.73,-24.35 -71.27,-59.5 -94.64,-105.45 -49.53,17.46 -94.17,48.24 -133.89,92.36 -39.73,44.11 -71.04,96.26 -93.94,156.45 -22.9,60.2 -34.35,124.3 -34.35,192.3 0,83.63 15.42,148.88 46.27,195.75 30.84,46.87 73.84,70.3 128.99,70.3 38.32,0 72.44,-9.42 102.35,-28.26 29.9,-18.84 54.21,-44.11 72.91,-75.81 18.69,-31.71 28.97,-67.32 30.83,-106.84 22.44,0 39.73,7.13 51.89,21.37 12.15,14.24 18.22,36.07 18.22,65.48 0,51.46 -13.09,98.1 -39.26,139.91 -26.17,41.82 -61.22,75.13 -105.16,99.95 -43.92,24.81 -92.99,37.21 -147.21,37.21zm263.59 213.67c-59.83,0 -102.58,-13.09 -128.29,-39.29 -25.7,-26.19 -38.55,-64.1 -38.55,-113.72 0,-13.79 1.63,-31.71 4.9,-53.76 3.27,-22.06 7.72,-46.87 13.32,-74.44l161.24 -234.34 -54.69 -62.04 -109.35 -103.38c42.06,-26.65 87.63,-48.94 136.7,-66.86 49.07,-17.92 96.04,-26.88 140.9,-26.88 40.2,0 68,7.35 83.42,22.06 15.43,14.7 23.14,38.13 23.14,70.3 0,11.95 -3.74,32.16 -11.22,60.65 -7.47,28.49 -16.59,61.57 -27.34,99.25 -10.75,37.68 -21.5,77.43 -32.24,119.24 -10.75,41.82 -19.86,82.71 -27.35,122.69 -7.47,39.97 -11.21,76.04 -11.21,108.21 0,24.81 3.5,46.87 10.52,66.17 7.01,19.3 17.99,34.46 32.94,45.49 -26.17,20.21 -53.5,35.38 -82.01,45.49 -28.51,10.11 -56.79,15.16 -84.83,15.16zm583.42 -220.56c-52.35,0 -98.39,-13.32 -138.11,-39.97 -39.72,-26.65 -70.34,-64.33 -91.84,-113.04 -21.49,-48.71 -32.24,-105.68 -32.24,-170.93 0,-79.96 13.56,-152.79 40.66,-218.49 27.11,-65.71 65.43,-122.46 114.96,-170.25 49.55,-47.78 108.44,-84.54 176.66,-110.28 68.24,-25.73 143.95,-38.59 227.14,-38.59 39.25,0 76.18,3.67 110.76,11.02 5.61,11.95 9.82,28.03 12.61,48.25 2.81,20.22 4.22,42.27 4.22,66.17 -56.09,0 -108.89,9.42 -158.44,28.26 -49.54,18.84 -93,44.8 -130.39,77.88 -37.39,33.09 -66.83,71.22 -88.32,114.42 -21.5,43.19 -32.26,89.14 -32.26,137.85 0,45.03 9.59,79.72 28.75,104.07 19.16,24.36 46.03,36.53 80.61,36.53 69.18,0 124.32,-40.43 165.44,-121.31 41.13,-80.87 70.58,-206.77 88.34,-377.7 25.23,-31.25 52.81,-54.22 82.72,-68.93 29.91,-14.7 63.56,-22.05 100.94,-22.05 32.72,0 57.96,9.42 75.72,28.26 17.76,18.84 26.64,45.72 26.64,80.64 0,23.89 -4.44,56.29 -13.32,97.18 -8.88,40.9 -19.16,85.93 -30.85,135.09 -11.68,49.17 -21.97,99.26 -30.85,150.26 -8.87,51 -13.31,98.56 -13.31,142.67 0,59.74 14.48,101.55 43.46,125.45 -28.04,22.05 -57.25,38.82 -87.63,50.31 -30.37,11.49 -61.45,17.23 -93.24,17.23 -47.66,0 -84.35,-13.55 -110.06,-40.66 -25.7,-27.11 -38.56,-65.02 -38.56,-113.73 0,-7.35 0.47,-15.16 1.41,-23.43 0.93,-8.27 1.87,-17 2.8,-26.19l-14.01 -6.9c-26.18,66.17 -64.27,117.86 -114.27,155.08 -50.01,37.22 -105.39,55.83 -166.14,55.83zm945.13 0c-58.89,0 -100.95,-14.7 -126.18,-44.11 -25.24,-29.41 -37.86,-71.68 -37.86,-126.82 0,-15.62 1.86,-37.91 5.61,-66.86 3.74,-28.95 8.64,-62.03 14.73,-99.25 6.07,-37.22 13.08,-75.82 21.02,-115.79 7.94,-39.98 15.9,-79.04 23.84,-117.17 7.94,-38.14 15.65,-72.83 23.13,-104.08l-72.91 -110.28c38.33,-21.14 79.68,-39.29 124.09,-54.45 44.39,-15.16 89.49,-22.74 135.29,-22.74 39.26,0 68.24,9.42 86.93,28.26 18.7,18.83 28.04,44.34 28.04,76.5 0,23.9 -3.27,48.71 -9.81,74.44 -6.55,25.73 -14.03,47.79 -22.44,66.17l14.03 6.89c55.15,-92.82 113.1,-158.07 173.85,-195.75 60.75,-37.67 125.25,-56.51 193.48,-56.51 49.54,0 90.2,12.17 121.98,36.53 31.79,24.35 47.67,63.64 47.67,117.86 0,12.86 -1.17,26.88 -3.51,42.04 -2.34,15.16 -5.83,31.48 -10.51,48.94l14.02 6.89c55.15,-92.82 113.1,-158.07 173.86,-195.75 60.76,-37.67 125.25,-56.51 193.48,-56.51 57.02,0 99.55,13.55 127.59,40.66 28.04,27.11 42.06,69.16 42.06,126.13 0,36.76 -4.21,75.59 -12.62,116.49 -8.42,40.89 -18,82.93 -28.75,126.13 -10.74,43.19 -20.32,86.38 -28.73,129.58 -8.42,43.19 -12.62,86.38 -12.62,129.57 0,27.57 2.57,52.16 7.71,73.75 5.14,21.6 12.39,38.83 21.73,51.7 -49.54,45.03 -100.94,67.54 -154.23,67.54 -58.88,0 -100.95,-13.55 -126.18,-40.66 -25.23,-27.11 -37.86,-65.94 -37.86,-116.49 0,-42.27 4.21,-83.39 12.63,-123.37 8.41,-39.98 18.22,-78.34 29.44,-115.1 11.21,-36.76 21.02,-71 29.44,-102.7 8.41,-31.71 12.62,-59.97 12.62,-84.78 0,-19.3 -3.51,-34.46 -10.52,-45.49 -7.01,-11.03 -19.4,-16.54 -37.15,-16.54 -25.24,0 -53.98,11.03 -86.23,33.08 -32.24,22.06 -63.56,53.07 -93.93,93.05 -30.38,39.98 -55.39,87.53 -75.01,142.67 -19.63,55.14 -29.45,116.26 -29.45,183.34 0,27.57 2.57,52.16 7.71,73.75 5.14,21.6 12.39,38.83 21.74,51.7 -49.54,45.03 -100.96,67.54 -154.23,67.54 -58.88,0 -100.95,-13.55 -126.19,-40.66 -25.23,-27.11 -37.85,-65.94 -37.85,-116.49 0,-42.27 4.2,-83.39 12.62,-123.37 8.41,-39.98 18.23,-78.34 29.44,-115.1 11.21,-36.76 21.03,-71 29.44,-102.7 8.41,-31.71 12.62,-59.97 12.62,-84.78 0,-19.3 -3.51,-34.46 -10.51,-45.49 -7.01,-11.03 -19.4,-16.54 -37.16,-16.54 -25.23,0 -53.98,11.03 -86.23,33.08 -32.24,22.06 -63.56,53.07 -93.94,93.05 -30.37,39.98 -55.38,87.53 -75.01,142.67 -19.62,55.14 -29.43,116.26 -29.43,183.34 0,27.57 2.56,52.16 7.71,73.75 5.13,21.6 12.38,38.83 21.72,51.7 -49.53,45.03 -100.94,67.54 -154.22,67.54zm1752.72 0c-115.9,0 -206.8,-30.32 -272.69,-90.98 -65.9,-60.65 -98.85,-145.2 -98.85,-253.64 0,-74.44 13.79,-143.13 41.36,-206.08 27.57,-62.96 66.13,-117.64 115.67,-164.04 49.54,-46.41 107.96,-82.48 175.26,-108.22 67.29,-25.73 140.67,-38.59 220.12,-38.59 85.99,0 152.59,17.46 199.79,52.38 47.2,34.92 70.81,84.09 70.81,147.5 0,65.25 -23.14,121.3 -69.41,168.17 -46.27,46.87 -111.93,82.25 -196.98,106.15 -85.06,23.89 -186.94,34.92 -305.66,33.08l18.24 -102.01c100.01,-5.51 176.88,-23.66 230.63,-54.45 53.75,-30.78 80.62,-71.45 80.62,-121.99 0,-20.22 -7.01,-36.53 -21.03,-48.94 -14.02,-12.41 -32.25,-18.61 -54.68,-18.61 -29.92,0 -58.42,9.65 -85.53,28.95 -27.11,19.3 -51.4,45.95 -72.91,79.95 -21.49,34 -38.32,72.37 -50.46,115.1 -12.16,42.74 -18.23,87.54 -18.23,134.41 0,62.49 10.97,111.42 32.94,146.81 21.97,35.38 52.58,53.07 91.84,53.07 47.67,0 86.93,-17.23 117.77,-51.7 30.84,-34.46 47.2,-79.72 49.07,-135.78 56.08,0 98.85,10.11 128.29,30.33 29.44,20.22 44.17,49.63 44.17,88.22 0,39.52 -16.37,75.13 -49.08,106.84 -32.72,31.7 -77.11,56.97 -133.19,75.81 -56.09,18.84 -118.71,28.26 -187.88,28.26z"/>
  <path class="fil0" d="M5040.98 7974.61c-59.83,0 -103.29,-14.7 -130.39,-44.11 -27.11,-29.41 -40.67,-76.74 -40.67,-141.99 0,-20.21 1.17,-44.11 3.51,-71.68 2.34,-27.57 6.77,-63.41 13.32,-107.52 6.54,-44.11 15.66,-100.4 27.34,-168.86 11.68,-68.47 26.41,-153.25 44.17,-254.34l-74.31 -147.49c52.34,-33.09 102.82,-58.13 151.42,-75.13 48.6,-17 94.4,-25.5 137.4,-25.5 71.97,0 107.96,43.19 107.96,129.57 0,13.79 -1.88,34.24 -5.61,61.35 -3.74,27.11 -8.88,58.58 -15.43,94.42 -6.54,35.84 -13.54,74.21 -21.02,115.11 -7.49,40.89 -15.2,81.79 -23.14,122.68 -7.94,40.9 -15.18,79.73 -21.73,116.49 -6.54,36.76 -11.68,69.15 -15.42,97.18 -3.74,28.03 -5.61,49.85 -5.61,65.48 0,42.27 3.27,76.27 9.82,102.01 6.54,25.73 17.29,49.16 32.24,70.3 -53.28,41.35 -111.23,62.03 -173.85,62.03zm-618.3 0c-59.83,0 -103.29,-14.7 -130.4,-44.11 -27.11,-29.41 -40.66,-76.74 -40.66,-141.99 0,-20.21 1.17,-44.11 3.51,-71.68 2.33,-27.57 6.77,-63.41 13.31,-107.52 6.54,-44.11 15.66,-100.4 27.34,-168.86 11.69,-68.47 26.41,-153.25 44.16,-254.34l-74.3 -147.49c52.35,-33.09 102.81,-58.13 151.42,-75.13 48.61,-17 94.41,-25.5 137.4,-25.5 71.98,0 107.96,43.19 107.96,129.57 0,13.79 -1.87,34.24 -5.61,61.35 -3.73,27.11 -8.88,58.58 -15.42,94.42 -6.54,35.84 -13.56,74.21 -21.03,115.11 -7.48,40.89 -15.19,81.79 -23.13,122.68 -7.94,40.9 -15.2,79.73 -21.74,116.49 -6.54,36.76 -11.68,69.15 -15.42,97.18 -3.74,28.03 -5.61,49.85 -5.61,65.48 0,42.27 3.28,76.27 9.81,102.01 6.56,25.73 17.3,49.16 32.26,70.3 -53.28,41.35 -111.23,62.03 -173.85,62.03zm71.5 -403.9l30.84 -164.04 485.11 0 -28.04 164.04 -487.91 0zm1123.2 402.52c-52.35,0 -98.38,-13.32 -138.1,-39.97 -39.72,-26.65 -70.34,-64.33 -91.84,-113.04 -21.49,-48.71 -32.24,-105.68 -32.24,-170.93 0,-79.96 13.56,-152.79 40.66,-218.49 27.11,-65.71 65.43,-122.46 114.96,-170.25 49.55,-47.78 108.44,-84.54 176.66,-110.28 68.24,-25.73 143.95,-38.59 227.14,-38.59 39.25,0 76.18,3.67 110.76,11.02 5.61,11.95 9.82,28.03 12.61,48.25 2.81,20.22 4.21,42.27 4.21,66.17 -56.08,0 -108.89,9.42 -158.43,28.26 -49.54,18.84 -93,44.8 -130.39,77.88 -37.39,33.09 -66.83,71.22 -88.32,114.42 -21.51,43.19 -32.26,89.14 -32.26,137.85 0,45.03 9.58,79.72 28.75,104.07 19.16,24.36 46.03,36.53 80.61,36.53 69.17,0 124.32,-40.43 165.44,-121.31 41.13,-80.87 70.58,-206.77 88.34,-377.7 25.23,-31.25 52.8,-54.22 82.72,-68.93 29.91,-14.7 63.56,-22.05 100.94,-22.05 32.72,0 57.96,9.42 75.72,28.26 17.75,18.84 26.63,45.72 26.63,80.64 0,23.89 -4.43,56.29 -13.31,97.18 -8.88,40.9 -19.16,85.93 -30.85,135.09 -11.68,49.17 -21.97,99.26 -30.85,150.26 -8.88,51 -13.31,98.56 -13.31,142.67 0,59.74 14.48,101.55 43.46,125.45 -28.04,22.05 -57.25,38.82 -87.63,50.31 -30.37,11.49 -61.46,17.23 -93.24,17.23 -47.66,0 -84.35,-13.55 -110.06,-40.66 -25.7,-27.11 -38.56,-65.02 -38.56,-113.73 0,-7.35 0.47,-15.16 1.41,-23.43 0.93,-8.27 1.87,-17 2.8,-26.19l-14.01 -6.9c-26.18,66.17 -64.27,117.86 -114.27,155.08 -50.01,37.22 -105.39,55.83 -166.15,55.83zm1159.65 -34.46c-39.26,0 -76.18,-3.68 -110.76,-11.03 -5.61,-13.78 -9.81,-30.55 -12.62,-50.31 -2.8,-19.76 -4.2,-41.13 -4.2,-64.1 78.51,0 148.62,-14.25 210.3,-42.74 61.69,-28.48 110.3,-67.08 145.82,-115.79 35.51,-48.71 53.28,-103.85 53.28,-165.42 0,-45.03 -9.58,-79.72 -28.74,-104.07 -19.16,-24.36 -46.04,-36.53 -80.63,-36.53 -34.58,0 -69.39,18.61 -104.44,55.83 -35.06,37.21 -66.6,88.45 -94.64,153.7 -28.04,65.25 -50.48,139.68 -67.3,223.31l-2.81 -501.77 114.97 42.73c27.11,-66.16 65.2,-117.86 114.27,-155.08 49.07,-37.21 103.98,-55.82 164.74,-55.82 53.28,0 99.54,13.32 138.8,39.97 39.26,26.65 69.63,64.33 91.13,113.04 21.51,48.71 32.26,105.68 32.26,170.93 0,74.44 -13.56,142.45 -40.67,204.02 -27.1,61.57 -65.43,114.64 -114.97,159.21 -49.53,44.57 -108.42,79.04 -176.66,103.39 -68.22,24.35 -143.94,36.53 -227.13,36.53zm-241.15 275.7c-55.15,0 -95.34,-13.79 -120.57,-41.36 -25.24,-27.57 -37.86,-70.76 -37.86,-129.57 0,-16.55 2.81,-47.79 8.41,-93.74 5.6,-45.95 13.56,-101.78 23.83,-167.49 10.28,-65.71 22.2,-138.08 35.76,-217.11 13.55,-79.03 27.81,-159.91 42.76,-242.62l-78.52 -110.27c43.94,-32.17 89.04,-56.98 135.3,-74.44 46.27,-17.46 88.56,-26.19 126.89,-26.19 43,0 73.6,7.58 91.83,22.74 18.23,15.16 27.34,40.21 27.34,75.13 0,27.57 -4.2,62.49 -12.61,104.76 -8.41,42.28 -18.7,89.84 -30.85,142.68 -12.15,52.84 -24.53,109.13 -37.15,168.86 -12.63,59.74 -23.13,121.08 -31.55,184.03 -8.42,62.95 -12.62,125.67 -12.62,188.17 0,36.75 3.04,65.7 9.12,86.84 6.07,21.14 17.52,41.81 34.34,62.03 -23.36,20.22 -50.7,36.53 -82.01,48.94 -31.32,12.4 -61.93,18.61 -91.84,18.61zm1287.25 -275.7c-39.26,0 -76.18,-3.68 -110.77,-11.03 -5.61,-13.78 -9.81,-30.55 -12.62,-50.31 -2.79,-19.76 -4.2,-41.13 -4.2,-64.1 78.51,0 148.62,-14.25 210.31,-42.74 61.68,-28.48 110.29,-67.08 145.81,-115.79 35.51,-48.71 53.28,-103.85 53.28,-165.42 0,-45.03 -9.58,-79.72 -28.74,-104.07 -19.16,-24.36 -46.03,-36.53 -80.63,-36.53 -34.58,0 -69.39,18.61 -104.44,55.83 -35.06,37.21 -66.6,88.45 -94.64,153.7 -28.04,65.25 -50.48,139.68 -67.3,223.31l-2.81 -501.77 114.97 42.73c27.11,-66.16 65.2,-117.86 114.27,-155.08 49.07,-37.21 103.98,-55.82 164.74,-55.82 53.28,0 99.54,13.32 138.8,39.97 39.26,26.65 69.63,64.33 91.14,113.04 21.5,48.71 32.25,105.68 32.25,170.93 0,74.44 -13.56,142.45 -40.67,204.02 -27.1,61.57 -65.42,114.64 -114.97,159.21 -49.53,44.57 -108.42,79.04 -176.66,103.39 -68.22,24.35 -143.94,36.53 -227.12,36.53zm-241.16 275.7c-55.14,0 -95.34,-13.79 -120.57,-41.36 -25.24,-27.57 -37.86,-70.76 -37.86,-129.57 0,-16.55 2.81,-47.79 8.41,-93.74 5.61,-45.95 13.56,-101.78 23.83,-167.49 10.29,-65.71 22.21,-138.08 35.76,-217.11 13.55,-79.03 27.81,-159.91 42.76,-242.62l-78.52 -110.27c43.94,-32.17 89.04,-56.98 135.31,-74.44 46.26,-17.46 88.55,-26.19 126.88,-26.19 43,0 73.61,7.58 91.83,22.74 18.23,15.16 27.34,40.21 27.34,75.13 0,27.57 -4.2,62.49 -12.61,104.76 -8.41,42.28 -18.69,89.84 -30.85,142.68 -12.15,52.84 -24.53,109.13 -37.15,168.86 -12.63,59.74 -23.13,121.08 -31.55,184.03 -8.41,62.95 -12.62,125.67 -12.62,188.17 0,36.75 3.05,65.7 9.12,86.84 6.07,21.14 17.52,41.81 34.35,62.03 -23.37,20.22 -50.71,36.53 -82.02,48.94 -31.32,12.4 -61.92,18.61 -91.84,18.61zm985.8 0c-79.44,0 -139.97,-14.02 -181.56,-42.05 -41.6,-28.03 -62.39,-67.77 -62.39,-119.24 0,-27.57 7.24,-53.53 21.73,-77.88 14.49,-24.35 30.14,-42.5 46.97,-54.45 9.34,15.62 21.73,30.1 37.15,43.42 15.43,13.33 34.83,24.13 58.19,32.4 23.36,8.27 50.94,12.4 82.72,12.4 33.64,0 69.64,-7.58 107.95,-22.74 38.33,-15.17 77.12,-37.45 116.38,-66.86 39.26,-29.41 76.88,-65.94 112.87,-109.59 35.98,-43.65 67.99,-93.51 96.03,-149.56 28.04,-56.06 50.24,-118.33 66.6,-186.79 16.35,-68.47 24.54,-142.67 24.54,-222.63 0,-12.86 -0.7,-26.42 -2.1,-40.66 -1.41,-14.25 -3.04,-27.34 -4.92,-39.29 18.7,-17.46 42.77,-31.7 72.22,-42.73 29.43,-11.03 57.24,-16.54 83.42,-16.54 44.86,0 78.74,10.1 101.65,30.32 22.89,20.22 34.35,50.55 34.35,90.98 0,49.63 -8.18,107.98 -24.54,175.07 -16.36,67.09 -40.66,137.39 -72.91,210.91 -32.24,73.52 -71.74,145.66 -118.47,216.42 -46.74,70.77 -100.25,134.64 -160.53,191.61 -60.3,56.98 -126.89,102.47 -199.8,136.47 -72.91,34.01 -151.42,51.01 -235.55,51.01zm243.96 -241.24c-61.69,0 -110.06,-11.49 -145.11,-34.46 -35.05,-22.97 -60.99,-54.22 -77.82,-93.74 -16.82,-39.51 -27.33,-83.86 -31.54,-133.02 -4.21,-49.17 -6.31,-99.94 -6.31,-152.32 0,-52.39 -0.94,-103.62 -2.8,-153.71 -1.87,-50.08 -8.19,-95.57 -18.93,-136.47 -10.75,-40.89 -29.68,-73.75 -56.78,-98.56 49.53,-39.52 105.15,-59.27 166.84,-59.27 45.8,0 81.79,10.56 107.96,31.7 26.17,21.14 45.33,49.63 57.48,85.47 12.16,35.84 19.63,76.04 22.43,120.62 2.81,44.57 3.51,90.75 2.11,138.53 -1.41,47.79 -1.88,93.97 -1.41,138.54 0.47,44.57 4.21,84.78 11.22,120.62 7.01,35.84 19.86,64.33 38.56,85.47 18.69,21.13 46.27,31.7 82.72,31.7l-148.62 108.9z"/>
 </g>
</svg>
